<?xml version="1.0" encoding="UTF-8" standalone="no"?>
<svg xmlns="http://www.w3.org/2000/svg" viewBox="0 0 30 30" width="30" height="30">
    <path d="M14.924 2.415C10.927 2.44 7.39 4.52 5.228 7.697h19.544c-2.176-3.197-5.743-5.282-9.77-5.282h-.078z" fill="#608ab4"/>
    <path d="M4.534 8.844A12.995 12.995 0 0 0 3 15c0 6.946 5.377 12.586 12 12.586 6.625 0 12-5.64 12-12.587 0-2.24-.556-4.338-1.532-6.158H4.534z" fill="#375493"/>
    <path d="M5.228 7.697c-.25.368-.482.75-.694 1.147h20.934c-.213-.396-.445-.78-.696-1.147H5.228z" fill="#d6dde3"/>
    <path d="M20.126 3.826a.59.59 0 0 0-.16.03c-.535.852-.533 3.68-.526 4.29h.003c.792.176 1.84-.025 1.875-.783.06-.998.12-1.966-.41-2.587-.482.22-.39-.673-.587-.873a.24.24 0 0 0-.192-.077z" fill="#7bbce5"/>
    <path d="M19.966 3.855c-.282.086-.625.342-.795.425-.144.015-.42.004-.622.056-.44.113-.84.38-1.07.802-.297-.865-.936.2-1.693.81-.42-.315-1.265-.946-2.04-1.352-.624.316-1.277 1.383-1.665 1.473-.404.073-.973.03-1.21.314-.393.406-.514.872-.59 1.31.922.325 1.89.335 2.813.21.524-.126.897.05 1.436.03 1.635.07 3.41-.13 4.91.21-.007-.61-.01-3.438.526-4.29z" fill="#fff"/>
    <path d="M14.498 5.558c.197.592.368 1.184.303 1.776-.07.366.088.34.38.195.288-.158.44-.33.86-.47.33-.09.1-.33-.06-.496-.465-.442-.973-.72-1.48-1.008z" fill="#7bbce5"/>
    <path d="M16.178 8.844c.345 4.556 3.42 5.116 5.357 4.195-.968-.956-.617-2.897.416-2.92 1.91-.045 1.37 3.505 1.37 5.23 1.044-.21.975-4.143.754-6.507H16.18z" fill="#294584"/>
    <path d="M6.285 8.844l.112 1.177c.253.46.44.92.39 1.38.498-.12.795-.183 1.064.325 1.177.728 2.29.814 3.39.706.224 2.644.16 4.77.065 7.93.667 1.103 1.335 2.15 2.002 3.25.383.67 1.055.883 1.582.09l1.353-.61v.675c.695.174 1.38.438 1.066 1.157-.24.466-.106.67.576.36.603-.29.975.163 1.29.244-.45-.475-.063-1.41-.048-2.378.643-.058 1.378-.638 2.022-.697 1.322-1.28 1.55-1.753 1.55-3.404.13-.428.32-.54.224-1.285.075-.46.18-1.062.256-1.523l.15-.887h-.01c0-1.724.543-5.274-1.367-5.228-1.032.022-1.383 1.963-.415 2.916a3.888 3.888 0 0 1-.714.257c.08.45-.247.91-.674.93-.426-.038-1.054.383-1.45 1.348-.637 1.334-1.215.174-1.447-.184-.3-.395.067-.76-.75-.52-.538.163-1.22.272-1.385-.537-.69-.696-1.348-1.307-2.036-2.003-.276-.324-.047-.592-.046-.707v-.016l-.003-.006a.057.057 0 0 0-.003-.005s0-.003-.002-.004h-.002l-.005-.005-.005-.006s-.002 0-.003-.003l-.01-.003c-.27-.17-.594.034-.95.18-.926.17-1.29.007-1.39-.48.007-.806-.45-.722-1.192-.61-2.144.304-2.49-.45-3.116-1.82H6.29z" fill="#e0e9ea"/>
    <path d="M6.348 8.844c.625 1.368.972 2.123 3.116 1.82.744-.113 1.2-.197 1.194.61.1.486.462.65 1.39.48.354-.147.68-.35.948-.18.004 0 .008 0 .01.002l.005.002.01.006.005.005h.002l.002.003a.065.065 0 0 1 .005.013s0 .004.002.005v.013c-.002.114-.23.382.044.707.688.697 1.348 1.308 2.036 2.004.164.81.847.7 1.385.534.818-.238.45.127.75.52.23.36.81 1.52 1.446.185.397-.965 1.025-1.386 1.45-1.348.43-.02.755-.48.676-.93-1.897.48-4.336-.425-4.64-4.453H6.35z" fill="#4d8ac0"/>
    <path d="M12.77 14.08c-.617.04-.294 2.094-.227 3.068.092.958.306.732.98.315.308.624.12.972-.317 1.376-.326.303-.513.76-.23 1.29.086.14.16.2.26.43l.2.4a.652.652 0 0 1-.14.64c-.12.17-.144.343.013.817.082.274-.15.603.21.892.16.123.317.216.48.284-.14-.404-.145-.987-.077-1.488.046-.473.078-.767.51-1.088.38-.193.274-1.21.307-1.816l.013.01v-.01c.81-.17.36-.814.11-1.43l-1.977-3.684a.358.358 0 0 0-.108-.014c-.004 0-.006-.002-.01 0z" fill="#d6dde3"/>
    <path d="M12.887 14.093l1.978 3.683c.248.617.698 1.26-.11 1.43.072.432.607.807 1.202.757.62-.04 1.07.42 1.273.885.027-.512.09-1.02.216-1.524.08-.25.532-.47.156-.8-1.525-1.67-2.994-2.983-4.643-4.405a.55.55 0 0 0-.075-.03z" fill="#608ab4"/>
    <path d="M14.742 19.207c-.033.605.072 1.623-.306 1.815-.433.32-.465.615-.51 1.087-.07.5-.066 1.083.074 1.49.143.06.29.1.445.125.262.024.427.088.98-.012.482-.056.773-.29 1.325-.374.302-.06.506-.173.49-.63a20.856 20.856 0 0 1-.01-1.863c-.203-.465-.654-.925-1.273-.885-.588.05-1.12-.317-1.2-.742l-.015-.01z" fill="#236798"/>
    <path d="M22.87 18.597c-.052.14-.118.266-.174.447.002 1.65-.226 2.126-1.55 3.404-.01.003-.39.886-.71 1.117-.544.4-.51.76-.71 1.196-.147.224-.348.26-.494.22-.09-.07-.183-.106-.274-.215-.006.18.006.34.053.484l.01.01c.024.054.05.106.072.158 0 .002.004.003.005.005v.002a.684.684 0 0 0 .075.097.504.504 0 0 1-.027-.005c.556.884 1.34 1.16 2.348.812.544-.236.86-.45 1.197-.705.293-.276.64-.795.092-.83a.327.327 0 0 1-.144-.062l-.004-.002-.004-.01a.06.06 0 0 1-.006-.01s0-.004-.002-.005v-.01c.002-.08.152-.19.037-.42-.08-.348.255-.678.494-.766l-.495-1.075c.01-.235.475-.36.4-.798.134-1.104.316-2.742-.187-3.035z" fill="#608ab4"/>
    <path d="M19.9 14.25c-.398.107-.88.533-1.205 1.326-.15.312-.296.488-.434.57.016 1.36.34 2.33 1.014 2.86-.2.79-.398 1.875-.037 2.532-.61-.192-.36 1.03-.542 1.545-.306.856-.574.82-.86.893.26.298.598.614 1.103.8v.004c0 .004.004.01.007.014.038.057.207.12.29.183.145.04.346.005.492-.216.2-.433.167-.795.71-1.194.314-.225.684-1.074.712-1.116a2.757 2.757 0 0 1-1.41-2.847c.05-.304.25-.645-.02-1.135-.32-1.346-.114-2.913.18-4.216z" fill="#236798"/>
</svg>
