<?xml version="1.0" encoding="UTF-8" standalone="no"?>
<svg xmlns="http://www.w3.org/2000/svg" xmlns:xlink="http://www.w3.org/1999/xlink" viewBox="0 0 30 30" width="30" height="30">
    <defs>
        <linearGradient id="a" y2="322" gradientUnits="userSpaceOnUse" y1="35" x2="0">
            <stop stop-color="#069" offset="0"/>
            <stop stop-color="#0080CE" offset="1"/>
        </linearGradient>
        <linearGradient xlink:href="#a" id="b" gradientUnits="userSpaceOnUse" gradientTransform="matrix(.03365 0 0 .03393 31.172 34.56)" y1="35" x2="0" y2="322"/>
        <linearGradient xlink:href="#a" id="d" y1="339" y2="757"/>
        <linearGradient xlink:href="#a" id="e" y1="339" y2="757"/>
        <linearGradient xlink:href="#a" id="f" y1="339" y2="757"/>
        <linearGradient xlink:href="#a" id="g" y1="339" y2="757"/>
        <linearGradient xlink:href="#a" id="h" y1="339" y2="757"/>
        <linearGradient xlink:href="#a" id="i" y1="339" y2="757"/>
        <linearGradient xlink:href="#a" id="c" y1="339" y2="757"/>
    </defs>
    <path d="M42.243 37.547c1.447-1.188 2.928-1.8 5.217-1.8-1.784.714-2.996 1.834-3.904 2.682-.54-.277-.91-.51-1.313-.887zm11.51 0c-1.447-1.188-2.928-1.8-5.217-1.8 1.784.714 2.996 1.834 3.904 2.682.54-.277.91-.51 1.313-.887zm-6.058 1.9c-1.21 0-2.288-.272-3.533-.78 1.245-1.154 2.187-1.8 3.533-2.41zm.606 0c1.216 0 2.29-.272 3.538-.78-1.245-1.154-2.187-1.8-3.533-2.41zm-5.11-.543a7.135 7.135 0 0 1-1.447-.95c-.842.78-1.55 1.527-2.053 2.477.57.51 1.042.85 1.75 1.19.47-.982.975-1.83 1.75-2.712zm9.624 0a7.135 7.135 0 0 0 1.448-.95c.843.78 1.55 1.527 2.054 2.477-.57.51-1.042.85-1.75 1.19-.47-.982-.975-1.83-1.75-2.712zM47.7 40.058c-1.313 0-2.794-.374-3.97-.883a9.922 9.922 0 0 0-1.785 2.715c1.986.984 3.803 1.425 5.755 1.425zm.605 0c1.313 0 2.794-.374 3.972-.883a9.922 9.922 0 0 1 1.783 2.715c-1.986.984-3.803 1.425-5.755 1.425zm-8.95.916c.57.51 1.143.882 1.85 1.29-.336.746-.538 1.696-.673 2.612a16.08 16.08 0 0 1-2.053-1.29c.17-.983.47-1.866.873-2.612zm17.297 0c-.572.51-1.144.882-1.85 1.29.335.746.537 1.696.67 2.612a16.08 16.08 0 0 0 2.054-1.29 8.512 8.512 0 0 0-.875-2.612zM47.7 45.487h-5.59c-.37-.136-.674-.204-1.044-.373.134-1.052.336-1.765.64-2.613 1.85.99 3.802 1.43 5.99 1.43zm.606 0h5.587c.37-.136.674-.204 1.044-.373-.134-1.052-.336-1.765-.64-2.613-1.85.99-3.802 1.43-5.99 1.43zm-10.06 0c0-.44.032-.815.1-1.256.774.548 1.144.75 2.12 1.26zm19.517 0c0-.44-.032-.815-.1-1.256-.774.548-1.144.75-2.12 1.26z" fill="url(#b)" transform="translate(-24.62 -24.862) scale(.82543)"/>
    <g transform="matrix(.02778 0 0 .028 1.11 3.666)" fill="url(#c)">
        <path d="M32 339h936v31H32z" fill="url(#d)"/>
        <path d="M64 387h125v322H64z" fill="url(#e)"/>
        <path d="M313 387h125v322H313z" fill="url(#f)"/>
        <path d="M562 387h125v322H562z" fill="url(#g)"/>
        <path d="M811 387h125v322H811z" fill="url(#h)"/>
        <path d="M32 726h936v31H32z" fill="url(#i)"/>
    </g>
</svg>
