<?xml version="1.0" encoding="UTF-8" standalone="no"?>
<svg xmlns="http://www.w3.org/2000/svg" viewBox="0 0 14.150943 11.627907" width="30" height="30" fill-rule="evenodd">
    <g stroke-width=".028">
        <path class="fil1 str1" d="M2.95 3.435a5.435 5.435 0 1 0 8.126-.145l-1.14 1.052c1.383 1.505 1.54 3.927.21 5.48a4.04 4.04 0 0 1-5.695.442c-1.693-1.45-1.78-4.13-.33-5.826L2.95 3.435z" fill="#006aa5" stroke="#007cc3"/>
        <path class="fil2 str2" d="M8.567 7.76c-.01-.44-3.197-1.014-3.625-1.355a.83.83 0 0 1-.334-.63l1.25-.025c-.052.344 3.085.707 3.455 1.2.19.253.263.5.236.744l-.696.042c-.04-.04-.228 0-.29.023z" fill="#44916c" stroke="#44916c"/>
        <path class="fil1 str1" d="M4.713 3.217v1.12c.026.65 3.53 1.07 3.582 1.413.053.344-3.084.707-3.454 1.2-.38.506-.286.99.124 1.466.468.542 4.25 1.243 4.25 1.92v-1.17c0-.453-3.634-.967-3.625-1.407.01-.44 3.196-1.016 3.624-1.357.43-.34.463-.91 0-1.288-.63-.517-4.652-1.467-4.5-1.9z" fill="#006aa5" stroke="#007cc3"/>
        <path class="fil3 str3" d="M7.033 3.024a1.9 1.9 0 1 1 0-3.8 1.9 1.9 0 0 1 0 3.8z" fill="#922d2a" stroke="#903e2b"/>
        <path class="fil2 str2" d="M4.608 5.775c-.005-.232.102-.47.334-.658.63-.517 4.652-1.467 4.5-1.9v1.12c-.027.65-3.53 1.07-3.583 1.413l-1.254.025zM9.55 7.694c-.027.244-.153.484-.358.722-.468.542-4.25 1.243-4.25 1.92v-1.17c0-.453 3.634-.967 3.625-1.407.06-.026.248-.067.29-.026l.692-.042z" fill="#44916c" stroke="#44916c"/>
    </g>
</svg>
