<?xml version="1.0" encoding="UTF-8" standalone="no"?>
<svg xmlns="http://www.w3.org/2000/svg" viewBox="0 0 30 30" width="30" height="30">
    <path d="M14.277 10.974c.457 5.72 1.455 11.26 4.436 16.593l1.128.01 7.135-6.363-6.8-17.174-4.9 4.68-.997 2.254z" fill="#fdfcf8"/>
    <path d="M20.487 2.354c-2.355 2.28-4.684 4.538-4.684 4.538l.836 1.704C17.77 7.47 18.91 6.482 20 5.38c2.29 5.03 3.85 9.085 5.77 14.443.63 1.74.5 1.82-1 2.76-2.415 1.2-3.18 1.987-6.056 5.048h1.97c2.404-2.172 3.297-2.94 6.308-4.53 1.066-.61 1.212-1.39.775-2.595-1.41-3.917-4.463-12.358-7.284-18.148z" fill="#5f96d3"/>
    <path d="M8.574 10.98c.457 5.72 1.627 11.333 4.608 16.666l1.762.016 5.37-6.734-5.842-16.883-4.9 4.68-.998 2.255z" fill="#f4eed7"/>
    <path d="M14.346 2.408C12.622 3.57 11.293 5.246 9.794 6.68l.614 1.962c1.174-.925 2.195-2.04 3.25-3.095l5.69 14.27c.327.967-.19 1.826-1.227 2.763-1.24 1-3.8 3.33-4.96 5.104h1.766c1.853-1.903 2.187-2.162 4.297-3.99 1.418-1.444 2.697-2.184 2.03-4.036L14.35 2.408z" fill="#2a62a1"/>
    <path d="M2.02 10.857C2.488 16.86 4.363 22.24 6.568 27.47l2.322-.03 6.1-6.935L7.92 3.922l-4.9 4.68-1 2.255z" fill="#e9ddaf"/>
    <path d="M8.53 2.316c-.46.154-.842.45-1.2.764-4.86 4.677-5.056 4.874-5.056 4.874-.256.238-.277.585-.274.934l.02 1.97s2.245-2.183 5.597-5.41c1.804 4.7 3.686 9.376 5.54 14.058.254.708-.354 1.287-1.124 2.06-1.063 1.038-3.288 3.174-5.565 6.026H8.75l5.488-6.017c.52-.717 1.17-1.42.896-2.07L8.53 2.315z" fill="#15304f"/>
</svg>
