<?xml version="1.0" encoding="UTF-8" standalone="no"?>
<svg xmlns="http://www.w3.org/2000/svg" width="128" height="128" id="svg2">
  <g id="layer1">
    <path transform="scale(0.999273,1.000727)"
        style="fill:#D34A4A"
        d="M -4.4703484e-08,59.946016 C 2.5087486,59.880883 4.5450728,59.212969 6.1089787,57.942271 C 7.705448,56.639055 8.7643366,54.86338 9.2856477,52.615241 C 9.8069346,50.367176 10.083875,46.522596 10.116469,41.081489 C 10.149037,35.64048 10.246781,32.056549 10.4097,30.329686 C 10.702917,27.592926 11.240507,25.393696 12.02247,23.731989 C 12.836985,22.070415 13.830711,20.750877 15.003652,19.773371 C 16.176557,18.763424 17.675291,17.997767 19.49986,17.476395 C 20.737923,17.150656 22.757957,16.98775 25.559967,16.987677 L 28.29679,16.987677 L 28.29679,24.660554 L 26.781763,24.660554 C 23.39329,24.660619 21.145188,25.279662 20.03745,26.517684 C 18.929667,27.723251 18.375787,30.44378 18.375808,34.679279 C 18.375787,43.215606 18.19659,48.607792 17.838218,50.855855 C 17.251736,54.342081 16.241719,57.030029 14.808164,58.919707 C 13.407156,60.809447 11.191635,62.487378 8.1615956,63.953506 C 11.745515,65.452266 14.33572,67.74924 15.932217,70.844434 C 17.561257,73.907084 18.375787,78.940878 18.375808,85.945829 C 18.375787,92.299165 18.440949,96.078582 18.571295,97.284094 C 18.831924,99.499607 19.483547,101.04721 20.526169,101.92692 C 21.601324,102.8066 23.68652,103.24644 26.781763,103.24646 L 28.29679,103.24646 L 28.29679,110.91933 L 25.559967,110.91933 C 22.366982,110.91931 20.053718,110.65866 18.620167,110.13739 C 16.53495,109.388 14.808147,108.1662 13.439753,106.472 C 12.071327,104.81034 11.175344,102.69256 10.751803,100.11866 C 10.360815,97.544736 10.149037,93.325472 10.116469,87.460856 C 10.083875,81.596245 9.8069346,77.539887 9.2856477,75.29177 C 8.7643366,73.043683 7.705448,71.268008 6.1089787,69.964741 C 4.5450728,68.661513 2.5087486,67.977308 -4.4703484e-08,67.912124 L -4.4703484e-08,59.946016 M 33.428333,59.946016 C 35.937082,59.880883 37.973406,59.212969 39.537312,57.942271 C 41.133781,56.639055 42.19267,54.86338 42.713981,52.615241 C 43.235268,50.367176 43.512208,46.522596 43.544802,41.081489 C 43.57737,35.64048 43.675114,32.056549 43.838033,30.329686 C 44.131251,27.592926 44.66884,25.393696 45.450803,23.731989 C 46.265318,22.070415 47.259045,20.750877 48.431985,19.773371 C 49.60489,18.763424 51.103625,17.997767 52.928193,17.476395 C 54.166256,17.150656 56.18629,16.98775 58.9883,16.987677 L 61.725123,16.987677 L 61.725123,24.660554 L 60.210096,24.660554 C 56.821623,24.660619 54.573521,25.279662 53.465784,26.517684 C 52.358,27.723251 51.80412,30.44378 51.804141,34.679279 C 51.80412,43.215606 51.624924,48.607792 51.266551,50.855855 C 50.680069,54.342081 49.670052,57.030029 48.236498,58.919707 C 46.835489,60.809447 44.619968,62.487378 41.589929,63.953506 C 45.173849,65.452266 47.764053,67.74924 49.36055,70.844434 C 50.989591,73.907084 51.80412,78.940878 51.804141,85.945829 C 51.80412,92.299165 51.869283,96.078582 51.999629,97.284094 C 52.260257,99.499607 52.911881,101.04721 53.954502,101.92692 C 55.029658,102.8066 57.114854,103.24644 60.210096,103.24646 L 61.725123,103.24646 L 61.725123,110.91933 L 58.9883,110.91933 C 55.795316,110.91931 53.482051,110.65866 52.048501,110.13739 C 49.963283,109.388 48.23648,108.1662 46.868087,106.472 C 45.49966,104.81034 44.603678,102.69256 44.180136,100.11866 C 43.789148,97.544736 43.57737,93.325472 43.544802,87.460856 C 43.512208,81.596245 43.235268,77.539887 42.713981,75.29177 C 42.19267,73.043683 41.133781,71.268008 39.537312,69.964741 C 37.973406,68.661513 35.937082,67.977308 33.428333,67.912124 L 33.428333,59.946016 M 94.664738,59.946016 L 94.664738,67.912124 C 92.155956,67.977308 90.103341,68.661513 88.506887,69.964741 C 86.942966,71.268008 85.900368,73.043683 85.37909,75.29177 C 84.85777,77.507306 84.58083,81.335595 84.548269,86.77665 C 84.515667,92.217712 84.417924,95.801642 84.255038,97.528453 C 83.961787,100.29785 83.407907,102.49708 82.593396,104.12615 C 81.811429,105.78778 80.833993,107.10731 79.661086,108.08477 C 78.488148,109.09477 76.989413,109.86042 75.164878,110.38174 C 73.926781,110.74012 71.906748,110.91931 69.104771,110.91933 L 66.367948,110.91933 L 66.367948,103.24646 L 67.882975,103.24646 C 71.271415,103.24644 73.519517,102.6274 74.627288,101.38933 C 75.735037,100.18381 76.288918,97.446992 76.28893,93.17886 C 76.288918,85.03356 76.435533,79.869442 76.728776,77.68649 C 77.250063,74.06999 78.292661,71.186555 79.856573,69.036176 C 81.420455,66.853257 83.635975,65.159035 86.503142,63.953506 C 82.756283,62.161566 80.117207,59.79943 78.585906,56.86709 C 77.054575,53.902235 76.288918,48.917313 76.28893,41.91231 C 76.288918,35.559027 76.207465,31.763318 76.044571,30.525174 C 75.81649,28.342294 75.164867,26.827268 74.089697,25.980094 C 73.047089,25.100465 70.978184,24.660619 67.882975,24.660554 L 66.367948,24.660554 L 66.367948,16.987677 L 69.104771,16.987677 C 72.297722,16.98775 74.610986,17.248399 76.044571,17.769626 C 78.129755,18.486484 79.856558,19.691988 81.224985,21.386142 C 82.593377,23.080432 83.473069,25.2145 83.864063,27.788351 C 84.287599,30.362327 84.515667,34.581591 84.548269,40.446155 C 84.58083,46.310818 84.85777,50.367176 85.37909,52.615241 C 85.900368,54.830799 86.942966,56.590183 88.506887,57.893399 C 90.103341,59.196678 92.155956,59.880883 94.664738,59.946016 M 128.09307,59.946016 L 128.09307,67.912124 C 125.58429,67.977308 123.53168,68.661513 121.93522,69.964741 C 120.3713,71.268008 119.3287,73.043683 118.80743,75.29177 C 118.28611,77.507306 118.00917,81.335595 117.97661,86.77665 C 117.944,92.217712 117.84626,95.801642 117.68338,97.528453 C 117.39012,100.29785 116.83624,102.49708 116.02173,104.12615 C 115.23977,105.78778 114.26233,107.10731 113.08942,108.08477 C 111.91648,109.09477 110.41775,109.86042 108.59321,110.38174 C 107.35512,110.74012 105.33508,110.91931 102.53311,110.91933 L 99.796285,110.91933 L 99.796285,103.24646 L 101.31131,103.24646 C 104.69975,103.24644 106.94785,102.6274 108.05562,101.38933 C 109.16337,100.18381 109.71725,97.446992 109.71727,93.17886 C 109.71725,85.03356 109.86387,79.869442 110.15711,77.68649 C 110.6784,74.06999 111.721,71.186555 113.28491,69.036176 C 114.84879,66.853257 117.06431,65.159035 119.93148,63.953506 C 116.18462,62.161566 113.54554,59.79943 112.01424,56.86709 C 110.48291,53.902235 109.71725,48.917313 109.71727,41.91231 C 109.71725,35.559027 109.6358,31.763318 109.47291,30.525174 C 109.24483,28.342294 108.5932,26.827268 107.51803,25.980094 C 106.47543,25.100465 104.40652,24.660619 101.31131,24.660554 L 99.796285,24.660554 L 99.796285,16.987677 L 102.53311,16.987677 C 105.72606,16.98775 108.03932,17.248399 109.47291,17.769626 C 111.55809,18.486484 113.28489,19.691988 114.65332,21.386142 C 116.02171,23.080432 116.90141,25.2145 117.2924,27.788351 C 117.71594,30.362327 117.944,34.581591 117.97661,40.446155 C 118.00917,46.310818 118.28611,50.367176 118.80743,52.615241 C 119.3287,54.830799 120.3713,56.590183 121.93522,57.893399 C 123.53168,59.196678 125.58429,59.880883 128.09307,59.946016"
        id="text1888"/>
  </g>
</svg>
