<?xml version="1.0" encoding="UTF-8" standalone="no"?>
<svg xmlns="http://www.w3.org/2000/svg" version="1.2" viewBox="0 0 30 30" width="30" height="30">
    <path d="M1 23.642h1.037V6.358H1v17.284zm2.074 0h3.11V6.358h-3.11v17.284zM7.222 6.358v17.284h3.11V6.358h-3.11z" fill="#900"/>
    <path d="M25.89 23.642h1.036V6.358H25.89v17.284zm2.073-17.284v17.284H29V6.358h-1.037zM11.37 23.642h1.037V6.358H11.37v17.284zm2.074-17.284v17.284h1.037V6.358h-1.035z" fill="#396"/>
    <path d="M15.52 23.642h3.11V6.358h-3.11v17.284zm4.147 0h1.037V6.358h-1.037v17.284zM21.74 6.358v17.284h3.112V6.358h-3.11z" fill="#069"/>
</svg>
