<?xml version="1.0" encoding="UTF-8" standalone="no"?>
<svg xmlns="http://www.w3.org/2000/svg" viewBox="41.5 29.5 30 30" width="30" height="30">
    <g transform="matrix(.0431 0 0 .0431 39.126 33.502)">
        <g fill="#006697">
            <path d="M78.288 418.646V116.15h68.572v12.574c-37.437 3.143-38.92 5.588-38.92 32.834v212.376c0 26.896.743 28.994 38.92 32.14v12.57H78.288v.002zM187.225 418.646V116.15h68.573v12.574c-37.437 3.143-38.92 5.588-38.92 32.834v212.376c0 26.896.743 28.994 38.92 32.14v12.57h-68.573v.002zM549.904 418.646v-12.572c37.065-3.146 38.92-5.242 38.92-32.488V161.208c0-27.245-1.854-29.34-38.92-32.484V116.15h68.573v302.497h-68.573zM659.482 418.646v-12.572c37.063-3.146 38.918-5.242 38.918-32.488V161.208c0-27.245-1.854-29.34-38.918-32.484V116.15h68.57v302.497h-68.57z"/>
        </g>
        <path d="M204.147 302.392c-4.66 15.826 11.188 28.896 24.93 30.47-5.14 5.35-12.865 5.042-18.95 8.61 10.123 23.785 40.177 29.04 62.263 22.084-18.86 16.998-34.88 38.835-39.004 64.104 1.054 1.41 4.7.842 6.77 1.23 22.803.213 44.3-10.734 61.557-25.236 6.97 17.194-12.72 25.237-26.287 27.268 15.182 21.4 43.55 7.62 53.68-11.57-1.872 13.865-3.7 27.793-6.845 41.443 24.15.088 45.252-16.11 53.015-38.897v-.085c3.548 13.384 1.502 28.128-4.416 40.316 8.387 5.956 26.77 1.87 33.04-5.538 6.812-8.053 12.098-19.422 15.694-29.238 6.85 13.9 14.79 28.193 15.886 43.826 25.994-4.807 33.474-35.326 31.882-57.3 13.82 20.667 33.218 40.233 57.606 46.83 7.847-25.913-3.084-54.478-18.635-75.627 8.562.5 19.662-.15 26.164 6.87 5.683 6.14 5.79 16.047 6.967 23.834 25.366-13.21 10.776-45.184-7.528-57.684 13.844 4.48 28.103 8.3 41.67 13.305 2.406-19.23-6.688-40.458-22.605-51.99 10.76 1.302 23.116 8.143 30.72 15.88 9.96-8.298 1.474-32.62-2.21-37.978-4.07-5.928-11.35-13.452-18.642-19.243 15.585-2.623 30.424-7.56 46.476-4-.564-21.186-12.428-31.074-26.47-38.782-7.414-1.887-13.873-5.137-21.545-6.156 22.803-9.064 49.36-21.097 60.94-44.322-23.925-11.638-52.8-11.426-77.646-1.403 3.247-26.17 19.868-22.708 37.093-21.242-7.808-23.41-36.623-21.444-52.706-10.288 7.406-10.12 12.63-26.152 21.545-34.472-22.683-7.842-50.047-1.222-66.056 18.376 2.81-14.7 9.236-30.842 21.36-40.537-18.045-19.052-45.36-1.157-58.722 14.772-.274-15.732-3.39-32.043 1.668-47.215-27.77-3.55-43.808 19.174-49.688 42.31-5.186-24.024-17.49-49.846-36.927-65.885-15.12 20.46-18.074 47.267-12.926 71.406-19.307-2.724-15.174-23.623-11.27-36.7-26.28 3.45-27.292 34.333-16.432 52.706-10.763-8.687-21.795-17.584-32.484-26.288-4.93 10.355-8.24 21.448-7.527 33.06-4.16-2.674-4.64-9.16-7.993-12.177-22.987 12.434-14.54 42.586-3.086 60.19-15.28-3.827-31.484-6.593-44.797-15.823-11.442 22.145 6.202 49.718 25.99 61.216-26.893-3.01-50.576 1.75-74.45 14.01 7.615 12.287 24.858 24.936 38.618 31.08-4.602 2.088-20.064-4.505-24.832-2.834.655 1.252 23.45 35.668 52.39 33-7.983 14.28-28.72 9.76-37.24.312" fill="#ffc200"/>
        <g fill="none" stroke-width="3">
            <path d="M345.167 107.165c6.136 24.385 20.526 56.996 37.5 76.083M395.333 180.582c-2.42-20.66-3.396-57.697 2-79.917M246.333 225.915C265.07 236.203 297.69 245.32 318 250.582M316.667 262.582c-36.5 18.167-89.167 12.834-99.333 10.5M231.833 303.665c24.527.592 62.31-10.058 86.167-13.417M218.75 333.082c31.297 3.414 76.972-15.96 106.25-23.834M299.417 407.832c17.423-17.62 37.215-49.515 45.917-72.917M326.583 426.082c4.614-23.654 20.066-60.253 37.75-78.167M374.75 427.082c6.355-20.05 14.87-49.203 18.583-69.834M419.5 431.25c6.803-21.58 8.416-53.776 5.167-76.335M469.667 419.916c-3.225-20.68-17.265-52.99-26-72M510 387.25c-12.47-16.454-35.232-36.488-53-47.002M537.833 361.25c-19.364-7.185-48.596-23.02-62.5-39.335M556.333 321.916c-19.098-12.31-46.19-23.344-67-32.334M491.924 252.838c24.322 3.14 51.06 13.222 72.076 25.952M488.23 235.603c23.21-4.955 53.29-9.184 77.145-6.812M482.69 224.522c16.21-18.965 37.94-33.706 60.935-42.857M530.375 149.415c-14.346 22.68-40.244 46.902-66.042 56.5M484.312 131.478c-15.097 16.35-30.48 36.657-44.097 54.264M316.062 122.29c18.46 15.432 41.63 43.092 47.938 66.958M278.062 129.603c8.988 10.88 24.224 20.905 34.836 29.74 12.452 10.367 19.666 35.49 24.768 50.24M265 178.54c12.5 18.935 38.84 43.536 58.333 54.708M446.938 106.103C431.35 125.53 419.698 157.478 413 181.25M263.667 367.248c20.728-8.072 55.646-26.372 73.333-40.333" stroke="#fff" stroke-linecap="round"/>
            <path stroke-miterlimit="10" d="M217.333 273.082c-5.167 0-7.167-2.167-10-2.667" stroke="#006697"/>
        </g>
        <circle cx="403.5" cy="268.581" r="88.333" fill="#8e7650" stroke="#fff" stroke-width="3"/>
    </g>
</svg>
