<svg viewBox="0 0 1024 800" width="1024" height="800" xmlns="http://www.w3.org/2000/svg">
    <path d="m419.89756,212.70215c-21.99461,11.68464 -41.92723,26.1186 -58.42318,43.30189l24.74393,-0.68733c9.62265,-15.80862 20.61994,-29.55526 33.67925,-42.61456zm19.93261,-8.24798c17.18329,-0.68733 34.36658,0.68733 51.54987,3.43666c5.49865,-4.81132 10.99731,-10.30998 15.80862,-16.49595c-22.68194,0.68733 -45.36388,4.81132 -67.3585,13.0593zm-10.99731,19.24528c-8.93531,8.24798 -17.18329,17.87062 -24.0566,28.18059c10.30998,-2.062 21.30728,-5.49865 32.30458,-9.62265l-8.24798,-18.55795l0,0.00001zm12.37197,-5.49865l8.24798,17.87062c9.62265,-4.81132 18.55795,-10.30998 27.49326,-16.49595c-11.68464,-1.37466 -23.36927,-2.062 -35.74124,-1.37466l0,-0.00001zm83.85445,-26.1186l-17.87062,19.93261c30.92992,8.24798 60.48518,22.68194 85.22911,43.30189c8.93531,-10.99731 17.18329,-22.68194 24.74393,-35.05391c-27.49326,-16.49595 -59.79785,-26.1186 -92.10243,-28.18059l0.00001,0zm-174.58222,76.98113c-20.61994,26.1186 -34.36658,55.67386 -41.2399,87.97844c14.43397,2.74933 28.86793,4.81132 43.98923,4.81132c1.37466,-32.30458 9.62265,-63.92184 24.74393,-92.10243c-8.93531,0.68733 -18.55795,0 -27.49326,-0.68733zm144.33963,-46.05121c-11.68464,9.62265 -25.43127,18.55795 -39.86523,26.1186l36.42858,84.54178c35.74124,-16.49595 66.67116,-39.86523 92.10243,-67.3585c-25.43127,-21.30728 -55.67386,-36.42858 -88.66577,-43.30189l-0.00001,0zm-100.35041,44.67656c-16.49595,28.86793 -26.1186,61.17251 -28.18059,94.85176c37.80324,0 76.2938,-7.56065 112.72238,-23.36927l-36.42858,-84.54178c-15.80862,6.18599 -32.30458,10.99731 -48.11321,13.0593zm234.38006,-39.86523c-7.56065,13.0593 -16.49595,25.43127 -26.1186,37.11591a217.88411,217.88411 0 0 1 57.04852,88.66577c13.74664,-13.74664 26.1186,-29.55526 37.80324,-45.36388c-15.80862,-33.67925 -39.86523,-60.48518 -68.73316,-80.41779zm-321.67117,142.96496c-4.81132,34.36658 -0.68733,70.10782 13.74664,105.16173c19.24528,2.062 39.1779,2.74933 59.11051,2.062a224.0701,224.0701 0 0 1 -27.49326,-102.41241c-15.12129,0 -30.24259,-2.062 -45.36388,-4.81132l0,-0.00001zm286.61727,-95.53909c-26.80593,28.86793 -59.11051,53.61186 -96.91375,71.48249l40.55257,93.47709c41.92723,-19.24528 79.04313,-45.36388 111.34771,-75.60647a202.07548,202.07548 0 0 0 -54.98652,-89.3531l-0.00001,0zm-227.50675,101.03774a204.13747,204.13747 0 0 0 29.55526,101.03774c43.30189,-3.43666 87.29111,-13.74664 129.21834,-31.61725l-40.55257,-93.47709c-38.49057,15.80862 -78.3558,24.0566 -118.22103,24.0566zm337.4798,-53.61186c-11.68464,16.49595 -25.43127,31.61725 -39.86523,46.05121c9.62265,37.11591 8.93531,74.23181 0,109.97305c17.87062,-13.0593 34.36658,-26.80593 50.1752,-41.92723c7.56065,-37.11591 4.81132,-76.2938 -10.30998,-114.09704zm-375.97037,167.7089c17.87062,35.74124 44.67656,63.92184 76.98113,83.85445c21.30728,-2.062 42.61456,-4.81132 63.92184,-9.62265c-31.61725,-17.18329 -59.79785,-41.92723 -80.41779,-73.54448c-20.61994,1.37466 -40.55257,0.68733 -60.48518,-0.68733zm324.4205,-110.66038c-31.61725,29.55526 -68.04583,54.29919 -109.28572,72.85715l33.67925,76.98113c24.0566,-11.68464 47.42587,-24.0566 69.42049,-38.49057c11.68464,-35.05391 14.43397,-73.54448 6.18599,-111.34771zm-248.1267,110.66038c21.99461,30.92992 52.2372,54.98652 85.91645,69.42049c24.74393,-6.18599 49.48787,-14.43397 73.54448,-24.74393l-32.99192,-76.98113c-41.2399,17.87062 -83.85445,28.18059 -126.46901,32.30458zm303.80056,-29.55526c-15.80862,13.74664 -32.99192,26.80593 -50.86253,39.1779c-11.68464,30.92992 -29.55526,59.11051 -53.61186,82.47979c51.54987,-25.43127 87.97844,-70.10782 104.4744,-121.65769zm-281.11862,124.40702c48.11321,21.99461 104.4744,25.43127 157.39893,5.49865c-32.99192,1.37466 -65.2965,-4.12399 -95.53909,-16.49595c-19.93261,4.81132 -41.2399,8.93531 -61.85984,10.99731zm210.32346,-72.16982c-17.87062,10.30998 -36.42858,19.93261 -54.98652,28.86793l13.0593,29.55526c17.18329,-17.18329 30.92992,-37.11591 41.92723,-58.42318l0,-0.00001zm-125.09435,54.98652c22.68194,6.87332 46.05121,10.30998 70.10782,8.93531l-13.0593,-29.55526c-18.55795,8.24798 -37.80324,15.12129 -57.04852,20.61994l0,0.00001z" fill="#396"/>
    <path d="m1.99997,374.91241c15.80862,0 28.18059,-4.81132 37.80324,-12.37197c9.62265,-8.24798 16.49595,-19.24528 19.93261,-32.99192c2.74933,-13.74664 4.81132,-37.80324 4.81132,-70.79516c0,-33.67925 0.68733,-56.36119 2.062,-66.67116c1.37466,-17.18329 4.81132,-30.92992 9.62265,-40.55257c4.81132,-10.30998 10.99731,-18.55795 18.55795,-24.74393c6.87332,-6.18599 16.49595,-10.99731 27.49326,-14.43397c7.56065,-2.062 20.61994,-2.74933 37.80324,-2.74933l16.49595,0l0,47.42587l-8.93531,0c-21.30728,0 -35.05391,3.43666 -41.92723,10.99731s-10.30998,24.74393 -10.30998,50.86253c0,52.92453 -0.68733,85.91645 -2.74933,100.35041c-4.12399,21.30728 -10.30998,37.80324 -18.55795,49.48787c-8.93531,11.68464 -22.68194,21.99461 -41.2399,30.92992c21.99461,9.62265 37.80324,23.36927 48.11321,42.61456s14.43397,50.1752 14.43397,93.47709c0,39.1779 0.68733,62.54717 1.37466,70.10782c2.062,13.74664 6.18599,23.36927 12.37197,28.86793c6.87332,5.49865 19.24528,8.24798 38.49057,8.24798l9.62265,0l0,47.42587l-17.18329,0c-19.93261,0 -33.67925,-2.062 -42.61456,-4.81132c-13.0593,-4.81132 -24.0566,-12.37197 -32.30458,-22.68194s-13.74664,-23.36927 -16.49595,-39.1779s-4.12399,-41.92723 -4.12399,-78.3558s-2.062,-61.17251 -4.81132,-75.60647c-3.43666,-13.74664 -9.62265,-24.74393 -19.93261,-32.30458a59.79785,59.79785 0 0 0 -37.80324,-13.0593l0,-49.48787l-0.00001,0.00002z" fill="#069"/>
    <path d="m155.27491,374.91241c15.12129,0 27.49326,-4.81132 37.80324,-12.37197c9.62265,-8.24798 16.49595,-19.24528 19.24528,-32.99192c3.43666,-13.74664 4.81132,-37.80324 5.49865,-70.79516c0,-33.67925 0.68733,-56.36119 1.37466,-66.67116c2.062,-17.18329 5.49865,-30.92992 10.30998,-40.55257c4.81132,-10.30998 10.99731,-18.55795 18.55795,-24.74393c6.87332,-6.18599 16.49595,-10.99731 27.49326,-14.43397c7.56065,-2.062 19.93261,-2.74933 37.11591,-2.74933l17.18329,0l0,47.42587l-9.62265,0c-20.61994,0 -34.36658,3.43666 -41.2399,10.99731s-10.30998,24.74393 -10.30998,50.86253c0,52.92453 -1.37466,85.91645 -3.43666,100.35041c-3.43666,21.30728 -9.62265,37.80324 -18.55795,49.48787s-22.68194,21.99461 -41.2399,30.92992c21.99461,9.62265 38.49057,23.36927 48.11321,42.61456s15.12129,50.1752 15.12129,93.47709c0,39.1779 0.68733,62.54717 1.37466,70.10782c1.37466,13.74664 5.49865,23.36927 12.37197,28.86793c6.18599,5.49865 19.24528,8.24798 38.49057,8.24798l8.93531,0l0,47.42587l-17.18329,0c-19.24528,0 -33.67925,-2.062 -42.61456,-4.81132c-13.0593,-4.81132 -23.36927,-12.37197 -32.30458,-22.68194c-8.24798,-10.30998 -13.74664,-23.36927 -16.49595,-39.1779c-2.062,-15.80862 -3.43666,-41.92723 -4.12399,-78.3558c0,-36.42858 -1.37466,-61.17251 -4.81132,-75.60647c-3.43666,-13.74664 -9.62265,-24.74393 -19.24528,-32.30458a60.48518,60.48518 0 0 0 -38.49057,-13.0593l0,-49.48787l0.68733,0l0.00001,0.00002zm713.45018,0l0,49.48787c-15.12129,0 -28.18059,4.12399 -37.80324,12.37197a57.73585,57.73585 0 0 0 -19.24528,32.99192c-3.43666,13.74664 -4.81132,37.80324 -5.49865,70.79516c0,33.67925 -0.68733,56.36119 -1.37466,66.67116c-2.062,17.18329 -5.49865,30.92992 -10.30998,41.2399c-4.81132,9.62265 -10.99731,17.87062 -18.55795,24.0566c-6.87332,6.18599 -16.49595,10.99731 -27.49326,14.43397c-7.56065,2.062 -19.93261,2.74933 -37.11591,2.74933l-17.18329,0l0,-47.42587l8.93531,0c21.30728,0 35.05391,-3.43666 41.92723,-10.99731s10.30998,-24.74393 10.30998,-50.86253c0,-50.1752 0.68733,-82.47979 2.74933,-95.53909c3.43666,-22.68194 9.62265,-40.55257 19.24528,-53.61186c9.62265,-13.74664 23.36927,-24.0566 41.2399,-31.61725c-23.36927,-10.99731 -39.86523,-25.43127 -48.80054,-43.98923c-9.62265,-17.87062 -14.43397,-48.80054 -14.43397,-92.10243c0,-39.1779 -0.68733,-62.54717 -1.37466,-70.10782c-1.37466,-13.74664 -5.49865,-23.36927 -12.37197,-28.86793c-6.18599,-4.81132 -19.24528,-7.56065 -38.49057,-7.56065l-8.93531,0l0,-47.42587l16.49595,0c19.93261,0 34.36658,1.37466 43.30189,4.81132c12.37197,4.12399 23.36927,11.68464 31.61725,21.99461c8.93531,10.99731 14.43397,24.0566 16.49595,39.86523c2.74933,15.80862 4.12399,41.92723 4.12399,78.3558c0.68733,35.74124 2.062,61.17251 5.49865,74.91914c2.74933,13.74664 9.62265,24.74393 19.24528,32.99192c9.62265,7.56065 22.68194,12.37197 37.80324,12.37197l0.00001,-0.00002z" fill="#069"/>
    <path d="m1022.00002,374.91241l0,49.48787c-15.80862,0 -28.18059,4.12399 -37.80324,12.37197a57.73585,57.73585 0 0 0 -19.93261,32.99192c-2.74933,13.74664 -4.81132,37.80324 -4.81132,70.79516c0,33.67925 -0.68733,56.36119 -2.062,66.67116c-1.37466,17.18329 -4.81132,30.92992 -9.62265,41.2399c-5.49865,9.62265 -10.99731,17.87062 -18.55795,24.0566c-6.87332,6.18599 -16.49595,10.99731 -27.49326,14.43397c-7.56065,2.062 -20.61994,2.74933 -37.80324,2.74933l-16.49595,0l0,-47.42587l8.93531,0c21.30728,0 35.05391,-3.43666 41.92723,-10.99731s10.30998,-24.74393 10.30998,-50.86253c0,-50.1752 0.68733,-82.47979 2.74933,-95.53909c2.74933,-22.68194 9.62265,-40.55257 19.24528,-53.61186c9.62265,-13.74664 23.36927,-24.0566 41.2399,-31.61725c-23.36927,-10.99731 -39.86523,-25.43127 -49.48787,-43.98923c-9.62265,-17.87062 -13.74664,-48.80054 -13.74664,-92.10243c0,-39.1779 -0.68733,-62.54717 -2.062,-70.10782c-1.37466,-13.74664 -4.81132,-23.36927 -11.68464,-28.86793c-6.87332,-4.81132 -19.24528,-7.56065 -38.49057,-7.56065l-9.62265,0l0,-47.42587l17.18329,0c19.93261,0 33.67925,1.37466 42.61456,4.81132c13.0593,4.12399 24.0566,11.68464 32.30458,21.99461c8.24798,10.99731 13.74664,24.0566 16.49595,39.86523s4.12399,41.92723 4.12399,78.3558c0,35.74124 2.062,61.17251 4.81132,74.91914c3.43666,13.74664 9.62265,24.74393 19.93261,32.99192c9.62265,7.56065 21.99461,12.37197 37.80324,12.37197l0.00002,-0.00002z" fill="#069"/>
</svg>
