<svg width="128" height="128" viewBox="0 0 128 128" xmlns="http://www.w3.org/2000/svg">
    <rect width="100%" height="100%" rx="15%" fill="#ffffff" fill-opacity=".8"/>
    <path d="m111.67761,119.5c-0.01595,-5.54884 -0.89209,-9.42628 -1.97828,-8.75498c-0.4205,0.25988 -1.02378,-0.82361 -1.34061,-2.40776c-0.39506,-1.97533 -1.14023,-2.83424 -2.37175,-2.73377c-1.2982,0.10592 -1.88628,-0.68464 -2.12265,-2.85349c-0.58817,-5.39695 -2.17305,-5.20104 -2.17305,0.26862c0,4.12366 -0.29556,5.05519 -1.46193,4.60761c-0.80407,-0.30854 -1.73439,-1.41942 -2.06739,-2.46861c-0.333,-1.04919 -1.15053,-1.90762 -1.81674,-1.90762c-0.72877,0 -1.65315,-2.80623 -2.32056,-7.04475c-1.60774,-10.21039 -4.79919,-15.91835 -10.48587,-18.75411c-5.71505,-2.84991 -7.40684,-2.47827 -17.37645,3.81714l-7.6531,4.83261l-4.48235,-1.92136c-5.26585,-2.2572 -7.42205,-1.54926 -9.33306,3.06432c-0.69946,1.68865 -1.46936,2.87267 -1.71089,2.63115c-0.24152,-0.24153 0.28061,-1.83096 1.16028,-3.53207c0.87968,-1.70111 1.14942,-3.09293 0.59942,-3.09293c-0.55,0 -1.77642,1.4625 -2.72538,3.25c-1.32269,2.49148 -1.81258,2.84157 -2.099,1.5c-0.43761,-2.04969 -1.35974,-2.21724 -3.02698,-0.55c-0.93333,0.93333 -1.2,0.89889 -1.2,-0.15499c0,-1.02997 -0.43924,-0.95748 -1.83115,0.30218c-1.00713,0.91145 -2.12126,1.36707 -2.47584,1.01249c-0.35457,-0.35457 -1.33055,-0.07546 -2.16884,0.62026c-5.42152,4.49946 4.63879,-14.08067 11.45056,-21.14777c4.79576,-4.97551 4.81882,-4.9857 9.66625,-4.27122c2.67246,0.3939 5.74072,1.03611 6.81834,1.42712c1.28605,0.46664 4.2069,-0.35414 8.5,-2.38856c5.43218,-2.57421 7.72703,-3.09162 13.54068,-3.05294c20.41886,0.13582 31.42376,15.31503 33.01788,45.54199c0.302,5.72629 0.75041,12.32394 0.99647,14.66144c0.25427,2.41548 0.024,4.25 -0.53348,4.25c-0.53948,0 -0.98701,-2.1375 -0.99453,-4.75z"
          fill="#f30000"/>
    <path d="m46.69127,53.24214c-4.63763,-1.71632 -6.2525,-1.87528 -10.29922,-1.01381c-6.47122,1.37761 -6.1442,1.44806 -10.34302,-2.22833c-3.43176,-3.00477 -11.35776,-14.05537 -11.35776,-15.83523c0,-0.42634 1.35,-0.38798 3,0.08523c1.65,0.47321 3,0.6117 3,0.30775c0,-0.30395 0.675,0.00756 1.5,0.69225c1.42324,1.18118 1.89749,0.73855 1.60714,-1.5c-0.07134,-0.55 1.05161,0.35 2.49545,2c1.48213,1.69376 2.37098,2.23658 2.04139,1.24668c-0.54176,-1.62717 -0.41152,-1.64047 1.80993,-0.18492c2.17567,1.42555 2.67272,1.42412 5.45705,-0.01572c2.96416,-1.53282 3.28963,-1.47017 10.05123,1.93492c3.84334,1.93547 8.08959,3.51904 9.43612,3.51904c5.96621,0 11.60169,-9.34601 11.60169,-19.24052c0,-2.13263 0.4176,-3.61942 0.928,-3.30398c0.51041,0.31545 1.21573,-0.33299 1.56739,-1.44098c1.01997,-3.21362 2.50461,-2.33308 2.50461,1.48548c0,1.925 0.45,3.5 1,3.5c0.55,0 1,-1.35 1,-3c0,-2 0.5,-3 1.5,-3c0.83333,0 1.5,-0.88889 1.5,-2c0,-1.1 0.45,-2 1,-2c0.55,0 1.05346,-2.1375 1.1188,-4.75l0.11879,-4.75l0.99945,5.5c1.37007,7.53953 -0.37387,24.2597 -3.19598,30.64176c-5.50766,12.45528 -17.75404,17.89762 -30.04106,13.35038z"
          fill="#0082c0"/>
</svg>
