<?xml version="1.0" encoding="UTF-8" standalone="no"?>
<svg xmlns="http://www.w3.org/2000/svg" xmlns:xlink="http://www.w3.org/1999/xlink" width="30" height="30"
     viewBox="0 0 30 30">
    <rect width="100%" height="100%" rx="15%" fill="#ffffff" fill-opacity=".8"/>
    <defs>
        <linearGradient id="b">
            <stop offset="0" stop-color="#006"/>
            <stop offset="1" stop-color="#00004f"/>
        </linearGradient>
        <linearGradient id="a">
            <stop offset="0" stop-color="#f4e3ca"/>
            <stop offset="1" stop-color="#e9cc9d"/>
        </linearGradient>
        <linearGradient id="c">
            <stop offset="0" stop-color="#d40000"/>
            <stop offset="1" stop-color="#570000"/>
        </linearGradient>
        <linearGradient xlink:href="#a" id="d" gradientUnits="userSpaceOnUse"
                        gradientTransform="translate(-476.472 -112.838)" x1="715.718" y1="299.564" x2="650.842"
                        y2="230.349"/>
        <linearGradient xlink:href="#a" id="e" gradientUnits="userSpaceOnUse"
                        gradientTransform="translate(-419.342 258.595)" x1="791.063" y1="-355.927" x2="723.262"
                        y2="-358.381"/>
        <linearGradient xlink:href="#a" id="f" gradientUnits="userSpaceOnUse"
                        gradientTransform="translate(-137.36 -469.778)" x1="175.475" y1="955.269" x2="218.356"
                        y2="880.659"/>
        <linearGradient xlink:href="#a" id="g" gradientUnits="userSpaceOnUse"
                        gradientTransform="translate(-490.353 22.102)" x1="758.902" y1="200.789" x2="693.675"
                        y2="145.097"/>
        <linearGradient xlink:href="#a" id="h" gradientUnits="userSpaceOnUse"
                        gradientTransform="translate(-450.41 198.752)" x1="870.859" y1="-140.094" x2="795.291"
                        y2="-169.776"/>
        <linearGradient xlink:href="#a" id="i" gradientUnits="userSpaceOnUse"
                        gradientTransform="translate(-490.36 21.895)" x1="965.196" y1="159.713" x2="901.404"
                        y2="103.76"/>
        <linearGradient xlink:href="#a" id="j" gradientUnits="userSpaceOnUse"
                        gradientTransform="translate(-379.778 -307.21)" x1="412.319" y1="743.887" x2="388.388"
                        y2="683.203"/>
        <linearGradient xlink:href="#a" id="k" gradientUnits="userSpaceOnUse"
                        gradientTransform="translate(-476.472 -112.838)" x1="805.995" y1="514.127" x2="741.843"
                        y2="450.751"/>
        <linearGradient xlink:href="#a" id="l" gradientUnits="userSpaceOnUse"
                        gradientTransform="translate(-489.426 -30.476)" x1="974.972" y1="357.184" x2="909.491"
                        y2="305.172"/>
        <linearGradient xlink:href="#b" id="m" gradientUnits="userSpaceOnUse"
                        gradientTransform="rotate(-2.65 371.013 8297.17) scale(.869)" x1="904.657" y1="359.947"
                        x2="947.514" y2="414.233"/>
        <linearGradient xlink:href="#b" id="n" gradientUnits="userSpaceOnUse"
                        gradientTransform="matrix(.4924 .57156 -.5038 .50537 233.622 -190.72)" x1="536.086" y1="521.375"
                        x2="439.249" y2="434.305"/>
        <linearGradient xlink:href="#b" id="o" gradientUnits="userSpaceOnUse"
                        gradientTransform="matrix(.486 .46026 -.48283 .4696 235.222 -80.236)" x1="366.086" y1="184.233"
                        x2="270.372" y2="86.036"/>
        <linearGradient xlink:href="#b" id="p" gradientUnits="userSpaceOnUse"
                        gradientTransform="matrix(.57853 .35368 -.35104 .58287 520.705 -207.504)" x1="173.229"
                        y1="524.233" x2="114.657" y2="451.375"/>
        <linearGradient xlink:href="#c" id="q" gradientUnits="userSpaceOnUse"
                        gradientTransform="matrix(.62093 .304 -.292 .64405 194.042 -60.618)" x1="370.372" y1="344.233"
                        x2="283.229" y2="259.176"/>
        <linearGradient xlink:href="#b" id="r" gradientUnits="userSpaceOnUse"
                        gradientTransform="matrix(.6207 .1362 -.13295 .60595 365.14 10.093)" x1="196.086" y1="365.661"
                        x2="95.29" y2="255.569"/>
        <linearGradient xlink:href="#b" id="s" gradientUnits="userSpaceOnUse"
                        gradientTransform="matrix(.66 .0594 -.06 .6536 -116.436 105.727)" x1="533.229" y1="185.661"
                        x2="454.657" y2="89.025"/>
        <linearGradient xlink:href="#b" id="t" gradientUnits="userSpaceOnUse"
                        gradientTransform="matrix(.2791 0 0 .29445 61.366 240.545)" x1="1090.108" y1="429.677"
                        x2="897.169" y2="230.677"/>
        <linearGradient xlink:href="#b" id="u" gradientUnits="userSpaceOnUse"
                        gradientTransform="matrix(.11096 -.03855 .03808 .11572 257.076 100.517)" x1="-190.765"
                        y1="284.215" x2="-514.014" y2="-144.09"/>
    </defs>
    <g transform="translate(-10.905 -3.89) scale(.08076)" stroke="#000">
        <rect transform="matrix(.9937 -.11215 .1212 .99263 0 0)" y="113.381" x="157.903" ry="12.279" rx="9.159"
              height="89.532" width="89.876" fill="#e7c78d" stroke-width="1.083" stroke-linecap="round"
              stroke-linejoin="round"/>
        <rect transform="matrix(.78086 .6247 -.61755 .78653 0 0)" y="-142.433" x="296.335" ry="12.279" rx="9.159"
              height="89.532" width="89.876" fill="#e7c78d" stroke-width="1.083" stroke-linecap="round"
              stroke-linejoin="round"/>
        <rect transform="matrix(.40092 -.9161 .91973 .39255 0 0)" y="408.653" x="4.384" ry="12.279" rx="9.159"
              height="89.531" width="89.876" fill="#e7c78d" stroke-width="1.083" stroke-linecap="round"
              stroke-linejoin="round"/>
        <rect transform="matrix(.98646 .16398 -.15496 .98792 0 0)" y="155.326" x="186.718" ry="12.279" rx="9.159"
              height="89.532" width="89.876" fill="#e7c78d" stroke-width="1.083" stroke-linecap="round"
              stroke-linejoin="round"/>
        <rect transform="matrix(.8594 .5113 -.50344 .86403 0 0)" y="5.921" x="340.086" ry="12.279" rx="9.159"
              height="89.531" width="89.876" fill="#e7c78d" stroke-width="1.083" stroke-linecap="round"
              stroke-linejoin="round"/>
        <rect transform="matrix(.98653 .16356 -.15455 .988 0 0)" y="113.799" x="398.771" ry="12.279" rx="9.159"
              height="89.532" width="89.876" fill="#e7c78d" stroke-width="1.083" stroke-linecap="round"
              stroke-linejoin="round"/>
        <rect transform="matrix(.8489 -.52854 .53627 .84405 0 0)" y="367.335" x="-31.37" ry="12.279" rx="9.159"
              height="89.532" width="89.876" fill="#e7c78d" stroke-width="1.083" stroke-linecap="round"
              stroke-linejoin="round"/>
        <rect transform="matrix(.9937 -.11215 .1212 .99263 0 0)" y="334.374" x="247.754" ry="12.279" rx="9.159"
              height="89.532" width="89.876" fill="#e7c78d" stroke-width="1.083" stroke-linecap="round"
              stroke-linejoin="round"/>
        <rect transform="matrix(.99835 .05748 -.04836 .99883 0 0)" y="264.068" x="403.255" ry="12.279" rx="9.159"
              height="89.532" width="89.876" fill="#e7c78d" stroke-width="1.083" stroke-linecap="round"
              stroke-linejoin="round"/>
        <rect transform="matrix(.9937 -.11215 .1212 .99263 0 0)" y="105.612" x="159.514" ry="12.279" rx="9.159"
              height="89.532" width="89.876" fill="url(#d)" stroke-width="1.083" stroke-linecap="round"
              stroke-linejoin="round"/>
        <rect transform="matrix(.78086 .6247 -.61755 .78653 0 0)" y="-149.008" x="291.98" ry="12.279" rx="9.159"
              height="89.532" width="89.876" fill="url(#e)" stroke-width="1.083" stroke-linecap="round"
              stroke-linejoin="round"/>
        <rect transform="matrix(.40092 -.9161 .91973 .39255 0 0)" y="406.091" x="11.902" ry="12.279" rx="9.159"
              height="89.531" width="89.876" fill="url(#f)" stroke-width="1.083" stroke-linecap="round"
              stroke-linejoin="round"/>
        <rect transform="matrix(.98646 .16398 -.15496 .98792 0 0)" y="147.433" x="186.146" ry="12.279" rx="9.159"
              height="89.532" width="89.876" fill="url(#g)" stroke-width="1.083" stroke-linecap="round"
              stroke-linejoin="round"/>
        <rect transform="matrix(.8594 .5113 -.50344 .86403 0 0)" y="-1.199" x="336.681" ry="12.279" rx="9.159"
              height="89.531" width="89.876" fill="url(#h)" stroke-width="1.083" stroke-linecap="round"
              stroke-linejoin="round"/>
        <rect transform="matrix(.98653 .16356 -.15455 .988 0 0)" y="105.905" x="398.201" ry="12.279" rx="9.159"
              height="89.532" width="89.876" fill="url(#i)" stroke-width="1.083" stroke-linecap="round"
              stroke-linejoin="round"/>
        <rect transform="matrix(.8489 -.52854 .53627 .84405 0 0)" y="360.983" x="-26.582" ry="12.279" rx="9.159"
              height="89.532" width="89.876" fill="url(#j)" stroke-width="1.083" stroke-linecap="round"
              stroke-linejoin="round"/>
        <rect transform="matrix(.9937 -.11215 .1212 .99263 0 0)" y="326.605" x="249.365" ry="12.279" rx="9.159"
              height="89.532" width="89.876" fill="url(#k)" stroke-width="1.083" stroke-linecap="round"
              stroke-linejoin="round"/>
        <rect transform="matrix(.99835 .05748 -.04836 .99883 0 0)" y="256.151" x="403.531" ry="12.279" rx="9.159"
              height="89.532" width="89.876" fill="url(#l)" stroke-width="1.083" stroke-linecap="round"
              stroke-linejoin="round"/>
        <path style="text-align:start;line-height:125%"
              d="M441.294 356.864l-27.643-1.628c-.652-5.67-1.42-10.76-2.3-15.273-1.24-6.47-1.75-11.712-1.536-15.72.292-5.432 1.232-10.295 2.82-14.59-4.05-1.59-5.976-4.19-5.782-7.798.186-3.426 1.176-6.458 2.97-9.094l1.336.08c.257 1.368.717 2.346 1.38 2.933.663.588 2.085 1.202 4.266 1.842 3.256.96 4.752 3.88 4.49 8.766-.067 1.24-.22 2.218-.456 2.935-2.15.642-4.117.91-5.897.805-.96 3.71-1.565 7.878-1.815 12.507-.32 5.94 1.21 13.16 4.59 21.66l1.535.036c4.973-8.85 9.546-20.08 13.718-33.69-3.998-1.918-5.898-4.7-5.702-8.344.17-3.137 1.16-5.91 2.978-8.328l1.335.08c.284 2.063 1.14 3.34 2.57 3.825l3.075.95c3.284 1.033 4.813 3.646 4.588 7.838-.08 1.494-.3 2.78-.654 3.855-1.51.424-3.37.57-5.58.44-3.146 12.357-7.338 23.573-12.577 33.648l15.725.926c1.814-5.45 6.436-13.295 13.867-23.535 1.89-2.56 2.885-4.768 2.985-6.627.102-1.895-.72-3.223-2.464-3.984l-.63-.258c-3.23-1.433-4.764-3.68-4.6-6.742.188-3.462 1.31-6.522 3.373-9.18l1.285.076c.137 1.763.915 2.98 2.334 3.648l2.712 1.202c3.067 1.387 4.5 3.976 4.295 7.767-.177 3.28-1.94 7.463-5.29 12.55-3.35 5.086-6.363 10.704-9.042 16.853-2.68 6.15-4.767 12.672-6.262 19.568z"
              fill="url(#m)" stroke-width=".838"/>
        <path style="text-align:start;line-height:125%"
              d="M204.06 338.416l1.254-.84c1.702 2.638 3.182 4.056 4.44 4.255 1.258.2 3.402-.71 6.43-2.736l14.07-9.407-.5-.914c-.468-.786-1.014-1.328-1.635-1.626a4 4 0 0 0-1.99-.388c-.703.04-4.27.452-10.693 1.24l-16.367 2.07-6.567-10.99 1.254-.84c2.4 2.798 5.088 4.254 8.07 4.37 2.98.12 8.95-.29 17.912-1.23 3.27-.345 5.723-.186 7.353.478.233-1.94.825-3.687 1.776-5.245.95-1.557 3.035-4.17 6.253-7.837 2.53-2.91 4.034-4.83 4.508-5.755.476-.926.49-1.76.047-2.504-.42-.7-1.304-1.387-2.655-2.06-1.303-.644-2.183-1.35-2.64-2.113-.533-.892-.69-1.82-.475-2.78.216-.963.742-1.723 1.58-2.282 1.016-.68 2.192-.842 3.527-.486 1.336.355 2.524 1.404 3.565 3.145a9.372 9.372 0 0 1 1.34 5.5c-.12 1.97-.63 3.654-1.53 5.06-.9 1.403-2.826 3.82-5.776 7.25-2.674 3.093-4.415 5.26-5.224 6.5-.81 1.24-1.225 2.514-1.25 3.823-.024 1.31.396 2.685 1.26 4.13.29.488.745 1.09 1.364 1.807l12.646-8.456c3.028-2.025 4.728-3.68 5.097-4.968.37-1.287-.207-3.31-1.728-6.067l1.253-.84 11.118 18.602-1.254.84c-1.69-2.616-3.16-4.018-4.41-4.207-1.253-.19-3.393.73-6.422 2.754l-12.646 8.454a8.6 8.6 0 0 0 .785 1.792c.952 1.593 1.99 2.653 3.11 3.18 1.124.53 2.37.684 3.743.465 1.37-.22 3.993-.952 7.864-2.203 4.158-1.353 7.024-2.155 8.6-2.405 1.573-.25 3.238-.018 4.994.696 1.755.712 3.146 1.93 4.175 3.65.99 1.656 1.38 3.208 1.17 4.657-.21 1.448-.858 2.535-1.943 3.26-.836.56-1.708.74-2.616.545-.907-.196-1.634-.75-2.18-1.663-.43-.723-.655-1.866-.672-3.43-.008-1.6-.228-2.76-.66-3.483-.42-.7-1.15-1.013-2.197-.938-1.046.074-3.303.677-6.772 1.807-4.548 1.495-7.682 2.364-9.403 2.608-1.72.245-3.46.06-5.215-.547a14.47 14.47 0 0 1-1.296 4.5c-.672 1.415-2.583 4.914-5.73 10.497-3.023 5.32-4.72 9.03-5.09 11.137-.37 2.106-.07 4.528.903 7.266l-1.256.84-6.567-10.99c.435-.65 2.724-4.467 6.866-11.457l6.83-11.52c.43-.706.803-1.565 1.116-2.577.31-1.01.13-2.08-.54-3.206-.14-.234-.317-.502-.53-.806l-14.07 9.407c-3.03 2.024-4.73 3.675-5.107 4.95-.377 1.278.19 3.284 1.7 6.02l-1.256.84-11.12-18.604z"
              fill="url(#n)" stroke-width=".736"/>
        <path d="M367.55 135.556l-10.173-8.44-35.785 39.66-6.913-5.737 35.784-39.66-4.91-4.073 4.936-5.47 21.996 18.248-4.936 5.47zm-34.076-14.222c-3.825 4.24-8.364 6.86-13.618 7.86-5.254 1.003-10.526.325-15.817-2.032l1.814 23.03-8.847-.167-3.35-41.042 8.878.132.697 8.59c.033.267.378.672 1.032 1.215 3.22 2.672 7.242 3.518 12.065 2.537 4.345-.858 7.834-2.746 10.467-5.663 2.036-2.257 3.08-5.138 3.128-8.643.063-3.772-1.175-6.713-3.715-8.82-1.675-1.39-3.407-2.21-5.197-2.46-2.003-.267-3.652.318-4.948 1.754-1.85 2.05-1.402 4.217 1.348 6.498.628.523 1.378.986 2.25 1.39l-4.628 5.128c-1.257-.485-2.723-1.422-4.4-2.813-2.67-2.216-4.045-4.852-4.126-7.908-.1-2.834.897-5.41 2.995-7.737 2.694-2.985 6.204-4.337 10.53-4.057 4.06.22 7.804 1.753 11.234 4.6 5.053 4.192 7.706 8.964 7.96 14.316.193 5.06-1.726 9.826-5.757 14.294z"
              fill="url(#o)" stroke-width=".839"/>
        <path d="M425.163 85.744c.665.4 2.283 1.776 4.854 4.13.842.778 1.64 1.392 2.394 1.843 2.175 1.302 5.545 3.185 10.11 5.65l5.64 2.457c3.59 2.15 5.003 3.78 4.237 4.886-.3.432-1.177 1.063-2.63 1.893l-1.1.77-10.638 10.46c-.536.5-.503 1.267.097 2.305.564 1.087.662 1.895.296 2.423-.832 1.203-3.554.423-8.165-2.34l-1.18-.604-6.653-3.577-5.34-2.89c-.264-.16-.973.232-2.127 1.172l-1.533 1.123-.996.22-.518-.208c-1.018-.61.42-4 4.32-10.167.154-.315.282-.544.382-.69l4.498-7.712c1.245-1.975 1.93-3.233 2.052-3.77.6-1.955.112-3.878-1.46-5.77-.93-1.104-1.274-1.922-1.03-2.455.6-.864 2.097-.58 4.49.854zm-6.743 24.53l10.858 6.2c2.073.9 3.77.896 5.09-.013 1.02-.75 3.242-3.5 6.663-8.253a127.93 127.93 0 0 1 2.817-3.925c.61-.79.754-1.452.434-1.984-.155-.23-.432-.462-.832-.7l-13.932-8.145-11.095 16.824zm-3.455 11.91l3.06 2.24c3.734 2.577 6 4.104 6.8 4.582l7.515 4.502 7.746 4.438.134.08 3.26 1.135.068.04c2.97 1.78 4.12 3.15 3.454 4.114-.266.384-1.026.847-2.28 1.387-.377.184-.654.358-.83.524-3.154 3.008-4.836 4.62-5.046 4.834-.123.267.026.73.446 1.392.277.505.344.953.2 1.34a1.57 1.57 0 0 1-.184.402c-.2.288-.582.432-1.148.434-.898-.06-3.642-1.398-8.232-4.013l-13.965-8.365c-1.418-.85-2.594-.6-3.527.746l-2.448 3.53c-1.367 1.972-.565 3.848 2.405 5.627l7.616 4.36.13.08c3.77 2.256 5.804 3.44 6.103 3.55.267.16.55.296.846.41l5.406 1.704c.3.11.582.246.848.405 3.592 2.15 4.888 3.95 3.89 5.39-.8 1.154-2.154 1.16-4.06.02l-21.532-12.796-1.464-.877c-3.814-2.284-5.742-4.528-5.785-6.73-.03-1.313.503-2.76 1.603-4.347l2.398-3.462c.933-1.345.684-2.752-.745-4.22l-1.464-1.693a.792.792 0 0 1 .052-.887c.5-.722 1.874-.443 4.123.838l.468.28 5.3 4.704.734.44c3.192 1.91 8.058 4.757 14.598 8.538 2.04 1.222 3.76 1.232 5.16.03.53-.498 1.147-1.25 1.846-2.26.966-1.394 1.454-2.19 1.464-2.387.123-.536-.125-.99-.745-1.363l-15.962-9.153c-.178-.107-1.398-.566-3.66-1.376a5.342 5.342 0 0 1-1.162-.494c-1.063-.638-2.277-2.146-3.64-4.526l-.895-1.965c-.122-.55-.1-.943.067-1.184.2-.29.544-.288 1.03.003zm41.768 6.142c-3.83 5.527-6.85 8.48-9.06 8.86l-1.03-.01-.2-.118c-.798-.478.263-2.87 3.185-7.172l13.893-20.044 1.134-1.77.05-.073c1.055-1.614.746-4.11-.925-7.493-1.197-2.35-1.717-3.818-1.56-4.404.4-.576 1.285-.453 2.66.37 1.906 1.143 3.9 3.153 5.984 6.033 1.053 1.378 1.595 2.45 1.626 3.22.033.494-.206 1.065-.717 1.712-2.564 3.157-3.863 4.76-3.897 4.808l-9.444 13.626c1.018.61 3.114 1.39 6.285 2.336 1.307.376 2.36.804 3.16 1.282 3.412 2.045 4.653 3.74 3.72 5.085-.9 1.298-3.632.58-8.2-2.156l-5.402-3.34-1.262-.756z"
              fill="url(#p)" stroke-width=".838"/>
        <path style="text-align:start;line-height:125%"
              d="M352.723 230.148l-.855 1.392c-1.26-.78-2.43-1.173-3.507-1.18-1.075-.01-2.37.417-3.885 1.28-1.015.583-3.05 2.214-6.104 4.89l-38.726 32.77-1.427-.882 8.996-39.41-30.974 25.833-1.287-.793 11.623-51.222c.87-3.82 1.338-6.106 1.407-6.86.11-1.246-.104-2.354-.64-3.325-.536-.97-1.505-1.89-2.91-2.757l.856-1.392 17.91 11.067-.855 1.39-.856-.528c-1.26-.78-2.41-1.074-3.445-.884-1.036.19-1.815.712-2.34 1.564-.538.876-1.254 3.218-2.147 7.023l-8.047 34.5 22.97-19.37 1.205-5.168.96-4.127c.27-1.562.388-3.01.355-4.345a5.267 5.267 0 0 0-.402-1.908c-.317-.82-.712-1.512-1.183-2.08-.36-.43-1.027-.946-2.003-1.548l.855-1.39 18.838 11.636-.854 1.39-1.283-.792c-1.332-.82-2.492-1.122-3.48-.903-.987.22-1.797.843-2.428 1.87-.786 1.28-1.62 3.84-2.506 7.686l-7.742 33.443 26.456-22.402c2.955-2.462 4.802-4.294 5.54-5.498a3.29 3.29 0 0 0 .477-1.936c-.037-.715-.256-1.334-.656-1.858-.69-.91-1.76-1.812-3.21-2.71l.855-1.39 14.45 8.926z"
              fill="url(#q)" stroke-width=".815"/>
        <path style="text-align:start;line-height:125%"
              d="M445.047 194.83l-4.814 5.32-4.695-5.51 4.704-5.355 4.805 5.545zm4.797 9.852l-4.823 5.224-4.766-5.533 4.7-5.216 4.89 5.525zm-9.66 1.168l-4.764 5.29-4.795-5.45 4.69-5.312 4.868 5.472zm.18 38.376l-2.897-.914c-1.467-.463-2.682-1.104-3.644-1.923-.962-.82-1.854-1.92-2.676-3.306-1.372.754-2.52 1.188-3.445 1.302-1.313.148-3.07-.125-5.27-.82l-4.51-1.422c-.836 2.61-2.187 4.978-4.053 7.106-2.42 2.766-5.36 4.633-8.82 5.603-4.35 1.22-9.225.978-14.628-.727-4.89-1.543-8.31-3.716-10.266-6.52-2.136-3.078-2.48-6.872-1.036-11.382a38.614 38.614 0 0 1 3.143-7.16 62.165 62.165 0 0 1 4.502-6.87c1.03-1.362 2.712-3.423 5.05-6.183l1.22 1.23c-3.02 3.545-5.18 6.407-6.485 8.588-1.304 2.18-2.27 4.25-2.897 6.206-1.127 3.517-.902 6.532.676 9.044 1.575 2.512 4.37 4.4 8.377 5.665 4.694 1.482 9.19 1.854 13.49 1.12 5.35-.905 8.703-3.47 10.057-7.696.91-2.836 1.32-5.673 1.233-8.51-.064-2.24-.448-4.484-1.153-6.736l5.838-7.76c.477 2.71.65 5.03.517 6.956-.2 2.717-.997 6.26-2.397 10.627l4.51 1.423c2.323.733 4.105.843 5.346.33 1.082-.44 1.86-1.397 2.332-2.872a25.71 25.71 0 0 0 .67-2.53c.182-.863.346-1.818.493-2.865l2.285-2.09-.735 4.31c-.352 2.95-.272 5.177.242 6.68.566 1.68 1.766 2.808 3.6 3.387.56.177 1.06.108 1.498-.206.438-.314.756-.784.956-1.41.457-1.416.564-3.053.324-4.91-.18-1.367-.544-2.794-1.092-4.28l3.944-3.86c.45 2.546.67 4.255.66 5.127-.036 1.956-.6 4.636-1.69 8.04l-3.27 10.21z"
              fill="url(#r)" stroke-width=".785"/>
        <path d="M224.054 250.962l2.04.424c-.984 4.638-2.674 7.81-5.07 9.52-2.394 1.708-5.046 2.26-7.956 1.654-2.382-.496-4.52-1.67-6.416-3.52-1.896-1.85-3.07-5.994-3.517-12.432l-1.25-18.1-23.212 26.25-10.714-2.23 32.88-35.546c-.17-5.522-.894-9.734-2.17-12.636-1.28-2.902-3.26-4.632-5.944-5.19-2.154-.45-4.17-.202-6.048.74-1.878.943-3.195 2.73-3.95 5.362l-2.04-.425c1.028-4.29 2.877-7.515 5.545-9.672 2.668-2.156 5.59-2.904 8.764-2.243 2.04.425 3.838 1.48 5.394 3.17 1.556 1.686 2.67 4.248 3.34 7.682.674 3.434 1.374 10.407 2.1 20.92l1.064 14.794c.397 6.12 1.287 10.344 2.667 12.67 1.38 2.325 3.32 3.748 5.814 4.267 4.233.88 7.125-.937 8.677-5.457z"
              fill="url(#s)" stroke-width=".824"/>
        <path d="M336.953 370.92c-.072-.364-1.02-10.07-2.107-21.568-1.087-11.498-2.052-21.545-2.146-22.326l-.17-1.42-.796 1.536c-1.704 3.288-3.65 5.573-4.747 5.573-.42 0-.834-.117-.918-.26-.086-.144.33-1.37.92-2.724 3.538-8.093 6.168-18.57 6.173-24.58.002-2.18.254-3.645.624-3.645.7 0 7.75 3.363 7.75 3.697 0 .21-.5.832-1.112 1.385-.992.896-1.216 1.367-2.077 4.358-.532 1.844-.916 3.407-.854 3.472.062.065 4.356-.34 9.544-.902l9.43-1.02 2.072-2.255c1.14-1.24 2.156-2.256 2.26-2.256.315 0 4.823 3.693 5.678 4.652.44.492.743 1.07.676 1.282-.088.28-2.167.605-7.44 1.167-4.027.43-7.364.83-7.417.888-.055.06.136 2.494.424 5.41.288 2.914.527 5.55.53 5.857.008.51.17.542 1.89.378l1.886-.18 1.835-2.12c1.35-1.558 1.94-2.052 2.234-1.864 1.142.737 5.99 4.985 6.066 5.315.11.48-.292.547-7.623 1.326-3.222.342-5.877.642-5.9.666-.043.048.972 10.393 1.087 11.072.055.323.448.412 1.606.362 1.52-.065 1.552-.086 3.516-2.268 1.09-1.212 2.156-2.2 2.37-2.2.457.004 6.392 5.19 6.392 5.584a.52.52 0 0 1-.21.4c-.114.07-3.097.427-6.628.79-3.53.363-6.495.742-6.588.843-.207.225.934 12.283 1.187 12.548.1.104 1.35.052 2.777-.117l2.597-.304 2.252-2.364c1.238-1.3 2.407-2.364 2.598-2.364.43 0 7.038 5.526 7.038 5.886a.565.565 0 0 1-.238.418c-.13.085-7.12.887-15.534 1.782-8.414.894-15.36 1.693-15.437 1.773-.076.08 0 1.44.168 3.02l.307 2.874-.865.8c-.778.715-3.997 2.293-4.68 2.293-.15 0-.33-.298-.402-.663zm9.85-11.84c2.052-.232 3.777-.47 3.835-.53.124-.132-1.024-12.382-1.177-12.56-.144-.168-8.11.617-8.425.832-.188.13.787 12.058 1.03 12.615.06.134.98.065 4.74-.358zm-1.077-15.784c1.765-.184 3.265-.39 3.334-.46.18-.184-.835-11.115-1.055-11.348-.217-.23-8.197.614-8.452.892-.094.104.056 2.44.333 5.194.277 2.753.51 5.315.52 5.694.015.626.11.673 1.063.524.574-.09 2.49-.313 4.255-.496zm-2.094-14.423c1.69-.17 3.325-.365 3.637-.432l.564-.12-.556-5.9c-.525-5.547-.592-5.9-1.126-5.893-1.423.015-7.802.885-7.987 1.09-.113.127.03 2.615.32 5.53.29 2.915.53 5.465.533 5.668.01.45.672.458 4.612.06zm-35.97 36.305c-1.42-1.758-1.842-2.495-1.845-3.212-.003-.926.005-.932 2.02-1.286 3.05-.537 10.908-2.703 16.39-4.517 2.68-.888 4.972-1.55 5.092-1.472.12.08.215.435.213.79-.003.52-.646 1.016-3.28 2.536-1.8 1.04-6.19 3.59-9.75 5.668-3.563 2.077-6.595 3.777-6.74 3.777-.144 0-1.09-1.026-2.103-2.28zm-.17-15.968c-.77-1.617-1.4-3.126-1.4-3.354 0-.23.326-.5.723-.607 1.04-.277 3.286-2.604 4.743-4.915 1.353-2.148 5.005-9.923 4.774-10.167-.076-.082-.56.08-1.072.36-1.792.98-9.28 4.247-9.73 4.247-.447 0-3.624-4.606-3.624-5.255 0-.182.606-.654 1.346-1.05 1.246-.665 1.434-.92 2.542-3.435 2.295-5.21 4.298-11.67 5.632-18.16.42-2.042.744-3.018 1.003-3.018.63 0 5.92 3.94 5.924 4.416.003.243-.475.8-1.064 1.24-.862.644-1.248 1.274-1.987 3.24-1.286 3.426-4.16 9.598-5.97 12.82-.84 1.497-1.506 2.723-1.478 2.723.03 0 2.124-.33 4.657-.733 2.533-.403 4.708-.734 4.833-.736.507-.01 3.82-8.32 3.82-9.584 0-1.1.933-.708 3.49 1.46 1.457 1.238 2.65 2.3 2.65 2.363 0 .06-.556.685-1.235 1.388-.8.827-2.383 3.396-4.498 7.3-3.47 6.404-6.126 10.867-8.118 13.634-.67.933-1.22 1.736-1.22 1.783 0 .048 2.982-.35 6.628-.88s7.1-.967 7.675-.97c1.008-.008 1.047.03 1.047 1 0 .98-.05 1.025-1.605 1.478-4.023 1.17-11.35 3.822-13.878 5.024-1.53.728-2.88 1.323-2.998 1.323-.12 0-.845-1.324-1.614-2.94zm41.192-36.972c-.238-.25-.567-1.012-.732-1.693-.783-3.222-1.982-5.44-4.166-7.705-1.055-1.094-1.41-1.678-1.41-2.32 0-.833.036-.855 1.11-.704 1.93.274 5.56 2.375 7.612 4.408 1.88 1.862 1.884 1.868 1.883 3.474 0 1.856-.784 3.5-2.106 4.42-.994.69-1.616.725-2.19.12z"
              fill="url(#t)" stroke-width=".838"/>
        <path d="M212.604 160.39c-.67-.313-1.755-1.106-4.265-3.117-1.854-1.483-3.42-2.778-3.484-2.878-.063-.1-.08-.227-.034-.283.044-.056.814-.564 1.71-1.13 9.145-5.78 16.773-12.48 22.048-19.368 6.433-8.398 11.482-18.682 13.833-28.173.25-1.006.51-1.99.574-2.186l.12-.355 3.668 1.787c2.018.984 3.708 1.856 3.757 1.938.162.274-1.357 5.568-2.545 8.873-2.668 7.418-6.666 14.92-11.04 20.713-5.8 7.677-12.66 14.497-20.86 20.734l-1.6 1.217.012.668a5.85 5.85 0 0 1-.114 1.194c-.104.442-.187.55-.505.66-.307.108-.55.053-1.277-.29zm-8.39-29.965c-6.068-1.82-10.27-2.825-14.376-3.442-.84-.126-1.545-.28-1.565-.34-.07-.215 2.426-8.068 2.582-8.122.185-.062 8.52 1.517 10.285 1.95 2.018.496 8.303 2.25 8.42 2.35.095.083-2.525 7.984-2.738 8.25-.048.06-1.22-.23-2.607-.644zm3.718-20.644c-4.165-1.18-6.593-1.786-9.56-2.385-4.863-.98-6.924-1.468-6.918-1.635.012-.352 1.805-7.62 1.918-7.776.085-.116.236-.145.49-.093l4.54.923c2.296.465 4.87 1.015 5.72 1.22 1.613.392 6.716 1.733 7.623 2.005l.524.156-.096.4c-.317 1.345-2.087 7.567-2.175 7.648-.06.054-.99-.153-2.07-.46z"
              fill="url(#u)" stroke-width=".838"/>
    </g>
</svg>
