<?xml version="1.0" encoding="UTF-8" standalone="no"?>
<svg xmlns="http://www.w3.org/2000/svg" version="1.2" width="64" height="64" viewBox="0 0 64 64">
    <rect width="100%" height="100%" rx="15%" fill="#ffffff" fill-opacity=".8"/>
    <path d="m4,49.284l2.074,0l0,-34.568l-2.074,0l0,34.568zm4.148,0l6.22,0l0,-34.568l-6.22,0l0,34.568zm8.296,-34.568l0,34.568l6.22,0l0,-34.568l-6.22,0z"
          fill="#900"/>
    <path d="m53.78,49.284l2.072,0l0,-34.568l-2.072,0l0,34.568zm4.146,-34.568l0,34.568l2.074,0l0,-34.568l-2.074,0zm-33.18599,34.568l2.074,0l0,-34.568l-2.074,0l0,34.568zm4.148,-34.568l0,34.568l2.074,0l0,-34.568l-2.07,0l-0.004,0z"
          fill="#396"/>
    <path d="m33.03999,49.284l6.22,0l0,-34.568l-6.22,0l0,34.568zm8.294,0l2.074,0l0,-34.568l-2.074,0l0,34.568zm4.146,-34.568l0,34.568l6.224,0l0,-34.568l-6.22,0l-0.004,0z"
          fill="#069"/>
</svg>
