<svg width="30" height="30" xmlns="http://www.w3.org/2000/svg">
    <rect width="100%" height="100%" rx="15%" fill="#ffffff" fill-opacity=".8"/>
    <g id="svg_1" transform="matrix(0.0405577 0 0 0.0405577 36.7505 31.702)">
        <g fill="#006697" id="svg_2">
            <path d="m-861.16764,-248.36945l0,-302.496l68.572,0l0,12.574c-37.437,3.143 -38.92,5.588 -38.92,32.834l0,212.376c0,26.896 0.743,28.994 38.92,32.14l0,12.57l-68.572,0l0,0.002zm108.937,0l0,-302.496l68.573,0l0,12.574c-37.437,3.143 -38.92,5.588 -38.92,32.834l0,212.376c0,26.896 0.743,28.994 38.92,32.14l0,12.57l-68.573,0l0,0.002zm362.679,0l0,-12.572c37.065,-3.146 38.92,-5.242 38.92,-32.488l0,-212.378c0,-27.245 -1.854,-29.34 -38.92,-32.484l0,-12.574l68.573,0l0,302.497l-68.573,0l0,-0.001zm109.578,0l0,-12.572c37.063,-3.146 38.918,-5.242 38.918,-32.488l0,-212.378c0,-27.245 -1.854,-29.34 -38.918,-32.484l0,-12.574l68.57,0l0,302.497l-68.57,0l0,-0.001z"
                  id="svg_3"/>
        </g>
        <path d="m-735.30864,-364.62345c-4.66,15.826 11.188,28.896 24.93,30.47c-5.14,5.35 -12.865,5.042 -18.95,8.61c10.123,23.785 40.177,29.04 62.263,22.084c-18.86,16.998 -34.88,38.835 -39.004,64.104c1.054,1.41 4.7,0.842 6.77,1.23c22.803,0.213 44.3,-10.734 61.557,-25.236c6.97,17.194 -12.72,25.237 -26.287,27.268c15.182,21.4 43.55,7.62 53.68,-11.57c-1.872,13.865 -3.7,27.793 -6.845,41.443c24.15,0.088 45.252,-16.11 53.015,-38.897l0,-0.085c3.548,13.384 1.502,28.128 -4.416,40.316c8.387,5.956 26.77,1.87 33.04,-5.538c6.812,-8.053 12.098,-19.422 15.694,-29.238c6.85,13.9 14.79,28.193 15.886,43.826c25.994,-4.807 33.474,-35.326 31.882,-57.3c13.82,20.667 33.218,40.233 57.606,46.83c7.847,-25.913 -3.084,-54.478 -18.635,-75.627c8.562,0.5 19.662,-0.15 26.164,6.87c5.683,6.14 5.79,16.047 6.967,23.834c25.366,-13.21 10.776,-45.184 -7.528,-57.684c13.844,4.48 28.103,8.3 41.67,13.305c2.406,-19.23 -6.688,-40.458 -22.605,-51.99c10.76,1.302 23.116,8.143 30.72,15.88c9.96,-8.298 1.474,-32.62 -2.21,-37.978c-4.07,-5.928 -11.35,-13.452 -18.642,-19.243c15.585,-2.623 30.424,-7.56 46.476,-4c-0.564,-21.186 -12.428,-31.074 -26.47,-38.782c-7.414,-1.887 -13.873,-5.137 -21.545,-6.156c22.803,-9.064 49.36,-21.097 60.94,-44.322c-23.925,-11.638 -52.8,-11.426 -77.646,-1.403c3.247,-26.17 19.868,-22.708 37.093,-21.242c-7.808,-23.41 -36.623,-21.444 -52.706,-10.288c7.406,-10.12 12.63,-26.152 21.545,-34.472c-22.683,-7.842 -50.047,-1.222 -66.056,18.376c2.81,-14.7 9.236,-30.842 21.36,-40.537c-18.045,-19.052 -45.36,-1.157 -58.722,14.772c-0.274,-15.732 -3.39,-32.043 1.668,-47.215c-27.77,-3.55 -43.808,19.174 -49.688,42.31c-5.186,-24.024 -17.49,-49.846 -36.927,-65.885c-15.12,20.46 -18.074,47.267 -12.926,71.406c-19.307,-2.724 -15.174,-23.623 -11.27,-36.7c-26.28,3.45 -27.292,34.333 -16.432,52.706c-10.763,-8.687 -21.795,-17.584 -32.484,-26.288c-4.93,10.355 -8.24,21.448 -7.527,33.06c-4.16,-2.674 -4.64,-9.16 -7.993,-12.177c-22.987,12.434 -14.54,42.586 -3.086,60.19c-15.28,-3.827 -31.484,-6.593 -44.797,-15.823c-11.442,22.145 6.202,49.718 25.99,61.216c-26.893,-3.01 -50.576,1.75 -74.45,14.01c7.615,12.287 24.858,24.936 38.618,31.08c-4.602,2.088 -20.064,-4.505 -24.832,-2.834c0.655,1.252 23.45,35.668 52.39,33c-7.983,14.28 -28.72,9.76 -37.24,0.312"
              fill="#ffc200" id="svg_4"/>
        <g fill="none" id="svg_5" stroke-width="3">
            <path d="m-594.28864,-559.85045c6.136,24.385 20.526,56.996 37.5,76.083m12.666,-2.666c-2.42,-20.66 -3.396,-57.697 2,-79.917m-151,125.25c18.737,10.288 51.357,19.405 71.667,24.667m-1.333,12c-36.5,18.167 -89.167,12.834 -99.333,10.5m14.499,30.583c24.527,0.592 62.31,-10.058 86.167,-13.417m-99.25,42.834c31.297,3.414 76.972,-15.96 106.25,-23.834m-25.583,98.584c17.423,-17.62 37.215,-49.515 45.917,-72.917m-18.751,91.167c4.614,-23.654 20.066,-60.253 37.75,-78.167m10.417,79.167c6.355,-20.05 14.87,-49.203 18.583,-69.834m26.167,74.002c6.803,-21.58 8.416,-53.776 5.167,-76.335m45,65.001c-3.225,-20.68 -17.265,-52.99 -26,-72m66.333,39.334c-12.47,-16.454 -35.232,-36.488 -53,-47.002m80.833,21.002c-19.364,-7.185 -48.596,-23.02 -62.5,-39.335m81,0.001c-19.098,-12.31 -46.19,-23.344 -67,-32.334m2.591,-36.744c24.322,3.14 51.06,13.222 72.076,25.952m-75.77,-43.187c23.21,-4.955 53.29,-9.184 77.145,-6.812m-82.685,-4.269c16.21,-18.965 37.94,-33.706 60.935,-42.857m-13.25,-32.25c-14.346,22.68 -40.244,46.902 -66.042,56.5m19.979,-74.437c-15.097,16.35 -30.48,36.657 -44.097,54.264m-124.153,-63.452c18.46,15.432 41.63,43.092 47.938,66.958m-85.938,-59.645c8.988,10.88 24.224,20.905 34.836,29.74c12.452,10.367 19.666,35.49 24.768,50.24m-72.666,-31.043c12.5,18.935 38.84,43.536 58.333,54.708m123.605,-127.145c-15.588,19.427 -27.24,51.375 -33.938,75.147m-149.333,185.998c20.728,-8.072 55.646,-26.372 73.333,-40.333"
                  id="svg_6" stroke="#fff" stroke-linecap="round"/>
            <path d="m-722.12264,-393.93345c-5.167,0 -7.167,-2.167 -10,-2.667" id="svg_7" stroke="#006697"
                  stroke-miterlimit="10"/>
        </g>
        <circle cx="-535.95564" cy="-398.43445" fill="#8e7650" id="svg_8" r="88.333" stroke="#fff" stroke-width="3"/>
    </g>
</svg>
