<svg width="64" height="64" viewBox="0 0 64 64" xmlns="http://www.w3.org/2000/svg">
    <rect width="100%" height="100%" rx="15%" fill="#ffffff" fill-opacity=".8"/>
    <path d="m12.85845,20.96211a25.20583,25.20583 0 1 0 37.68583,-0.67249l-5.28695,4.87882c6.41395,6.97972 7.14207,18.21221 0.9739,25.41456a18.73625,18.73625 0 0 1 -26.41162,2.04987c-7.85162,-6.72462 -8.2551,-19.15364 -1.53042,-27.01916l-5.43074,-4.65159z"
          fill="#006aa5" id="svg_2" stroke="#007cc3"/>
    <path d="m38.90831,41.02012c-0.04638,-2.04056 -14.82668,-4.70263 -16.81161,-6.28408a3.84929,3.84929 0 0 1 -1.54898,-2.92177l5.79709,-0.11597c-0.24113,1.59536 14.30729,3.27887 16.02321,5.56521c0.88115,1.17331 1.21969,2.31887 1.09447,3.45047l-3.22784,0.19476c-0.18551,-0.18551 -1.0574,0 -1.34491,0.10666l0.01856,0.00466l0,0.00006z"
          fill="#44916c" id="svg_3" stroke="#44916c"/>
    <path d="m21.0347,19.95109l0,5.1942c0.12057,3.01452 16.37106,4.96232 16.6122,6.55308c0.24579,1.59536 -14.30263,3.27887 -16.01856,5.56521c-1.7623,2.34669 -1.32635,4.59131 0.57508,6.79887c2.17043,2.51363 19.71016,5.76462 19.71016,8.90436l0,-5.42608c0,-2.1009 -16.85339,-4.48465 -16.81161,-6.52521c0.04638,-2.04056 14.82202,-4.71188 16.80695,-6.29333c1.99418,-1.57679 2.14728,-4.2203 0,-5.97335c-2.92177,-2.39766 -21.57452,-6.80346 -20.86962,-8.81161l-0.00466,0.01391l0.00006,-0.00006z"
          fill="#006aa5" id="svg_4" stroke="#007cc3"/>
    <path d="m31.79411,19.05603a8.81161,8.81161 0 1 1 0,-17.62322a8.81161,8.81161 0 0 1 0,17.62322z" fill="#922d2a"
          id="svg_5" stroke="#903e2b"/>
    <path d="m20.54772,31.81434c-0.02322,-1.07597 0.47308,-2.17968 1.54898,-3.05158c2.92177,-2.39766 21.57452,-6.80346 20.86962,-8.81161l0,5.1942c-0.12522,3.01452 -16.37106,4.96232 -16.61685,6.55308l-5.81566,0.11597l0.01391,0l0,-0.00006zm22.91943,8.89971c-0.12522,1.13159 -0.70955,2.24462 -1.66029,3.3484c-2.17043,2.51363 -19.71016,5.76462 -19.71016,8.90436l0,-5.42608c0,-2.1009 16.85339,-4.48465 16.81161,-6.52521c0.27826,-0.12057 1.15016,-0.31073 1.34491,-0.12057l3.20927,-0.19476l0.00466,0.01391l0,-0.00006z"
          fill="#44916c" id="svg_6" stroke="#44916c"/>
</svg>
