<?xml version="1.0" encoding="utf-8"?>
<svg version="1.1"
     xmlns="http://www.w3.org/2000/svg"
     x="0px" y="0px" width="512px" height="512px" viewBox="5.211 4.801 512 512"
     enable-background="new 5.211 4.801 512 512" xml:space="preserve">
<rect width="100%" height="100%" rx="15%" fill="#ffffff" fill-opacity=".8"/>
    <path fill="#970000" d="M261.211,261.743c26.803,0,48.533,21.724,48.533,48.522c0,26.811-21.73,48.531-48.533,48.531
	s-48.536-21.72-48.536-48.531C212.675,283.467,234.408,261.743,261.211,261.743z"/>
    <path fill="none" d="M261.211,165.653c79.874,0,144.613,64.746,144.613,144.612c0,79.876-64.739,144.622-144.613,144.622
	s-144.613-64.746-144.613-144.622C116.598,230.398,181.337,165.653,261.211,165.653z"/>
    <rect x="254.207" y="397.624" fill="#006499" width="14.008" height="58.229"/>
    <path fill="#006499" d="M240.348,400.049l20.863-36.395l20.863,36.395H240.348z"/>
    <polygon fill="#006499" points="163.215,418.172 153.313,408.257 194.492,367.078 204.404,376.994 "/>
    <path fill="#006499" d="M182.976,358.997l40.489-10.981l-10.984,40.491L182.976,358.997z"/>
    <rect x="115.624" y="303.262" fill="#006499" width="58.241" height="14.015"/>
    <path fill="#006499" d="M171.432,289.402l36.393,20.863l-36.393,20.873V289.402z"/>
    <polygon fill="#006499" points="188.635,257.533 147.456,216.363 157.357,206.455 198.547,247.625 "/>
    <path fill="#006499" d="M206.623,236.112l10.984,40.491l-40.489-10.981L206.623,236.112z"/>
    <polygon fill="#006499" points="359.207,418.172 318.018,376.994 327.93,367.078 369.108,408.257 "/>
    <path fill="#006499" d="M339.447,358.997l-40.49-10.981l10.984,40.491L339.447,358.997z"/>
    <rect x="348.558" y="303.262" fill="#006499" width="58.24" height="14.015"/>
    <path fill="#006499" d="M350.99,289.402l-36.397,20.863l36.397,20.873V289.402z"/>
    <polygon fill="#006499" points="327.93,253.453 318.018,243.545 359.207,202.375 369.108,212.283 "/>
    <path fill="#006499" d="M309.941,232.032l-10.984,40.491l40.49-10.981L309.941,232.032z"/>
    <path fill="#006499" d="M261.211,461.252c-40.326,0-78.235-15.703-106.761-44.222c-28.521-28.515-44.227-66.433-44.227-106.765
	c0-40.322,15.705-78.241,44.227-106.76l37.829,37.833c-18.406,18.414-28.547,42.895-28.547,68.927
	c0,26.042,10.141,50.521,28.547,68.936c18.415,18.411,42.893,28.552,68.932,28.552s50.517-10.141,68.932-28.552
	c38.009-38.009,38.009-99.85,0-137.863c-8.111-8.11-18.662-12.341-30.882-17.248c-27.157-10.895-64.328-25.812-73.135-90.361
	l53.017-7.229c4.588,33.716,16.439,38.463,40.038,47.94c14.679,5.882,32.938,13.213,48.791,29.063
	c28.521,28.519,44.227,66.438,44.227,106.76c0,40.332-15.705,78.25-44.227,106.765C339.447,445.549,301.538,461.252,261.211,461.252
	z"/>
    <path fill="#006499" d="M250.044,60.351c0,0-17.464,65.512-38.81,89.779c-21.365,24.264,56.283-30.091,82.488-2.429
	C319.938,175.359,250.044,60.351,250.044,60.351z"/>
</svg>
