<?xml version="1.0" encoding="UTF-8" standalone="no"?>
<svg xmlns="http://www.w3.org/2000/svg" viewBox="0 0 30 30" width="30" height="30">
    <rect width="100%" height="100%" rx="15%" fill="#ffffff" fill-opacity=".8" />
    <path d="M10.85 6.683A9.278 9.278 0 0 0 8.208 8.64c.37.008.74-.01 1.11-.05.428-.69.94-1.33 1.532-1.907zm.876-.38a10.12 10.12 0 0 1 2.337.16c.264-.236.51-.49.74-.753a9.277 9.277 0 0 0-3.077.593zm-.485.857a9.53 9.53 0 0 0-1.096 1.297 8.566 8.566 0 0 0 1.464-.455l-.365-.842zm.575-.246l.36.833c.445-.22.86-.477 1.248-.76a9.446 9.446 0 0 0-1.607-.073zm3.78-1.186a8.842 8.842 0 0 1-.8.9 10.05 10.05 0 0 1 3.85 1.99c.418-.505.795-1.038 1.13-1.595a9.385 9.385 0 0 0-4.18-1.295zM7.69 9.238a9.38 9.38 0 0 0-1.84 3.97 13.34 13.34 0 0 0 1.962.23 10.048 10.048 0 0 1 1.132-4.19 9.11 9.11 0 0 1-1.254-.01zm6.554-2.11a9.1 9.1 0 0 1-1.823 1.188l1.67 3.844a13.277 13.277 0 0 0 4.15-3.074 9.424 9.424 0 0 0-3.994-1.957zM9.686 9.17a9.413 9.413 0 0 0-1.256 4.283c1.7-.006 3.427-.34 5.09-1.037l-1.666-3.84a9.13 9.13 0 0 1-2.168.596zm10.612-1.81c-.354.583-.75 1.142-1.19 1.67a9.85 9.85 0 0 1 2.574 4.033 18.494 18.494 0 0 0 1.73-2.06 9.273 9.273 0 0 0-3.114-3.643zM5.746 13.82a9.278 9.278 0 0 0 .614 4.753 18.5 18.5 0 0 0 2.686.1 9.852 9.852 0 0 1-1.242-4.612c-.693-.03-1.38-.11-2.058-.24zM18.7 9.5a13.88 13.88 0 0 1-4.364 3.233l1.836 4.232a18.496 18.496 0 0 0 5.014-3.406A9.366 9.366 0 0 0 18.7 9.496zM8.42 14.072a9.265 9.265 0 0 0 1.32 4.563c1.97-.145 3.946-.61 5.863-1.42l-1.835-4.23A13.892 13.892 0 0 1 8.42 14.07zm15.276-2.415c-.55.734-1.156 1.43-1.813 2.084a9.88 9.88 0 0 1-.008 4.964 22.915 22.915 0 0 0 2.29-1.892 9.28 9.28 0 0 0-.47-5.152zm-17.04 7.57a9.282 9.282 0 0 0 3.51 3.8 22.9 22.9 0 0 0 2.89-.42 9.887 9.887 0 0 1-3.646-3.33c-.923.05-1.843.032-2.754-.05zm14.708-4.988a19.107 19.107 0 0 1-4.944 3.293L17.923 21a23.178 23.178 0 0 0 3.14-1.735s.002 0 .002-.002a9.3 9.3 0 0 0 .3-5.024zm-11.24 4.985a9.307 9.307 0 0 0 3.882 3.16 23.226 23.226 0 0 0 3.348-1.135l-1.503-3.465a19.138 19.138 0 0 1-5.724 1.44zM23.882 17.9a23.52 23.52 0 0 1-2.31 1.772 10.106 10.106 0 0 1-2.43 3.733 9.31 9.31 0 0 0 4.74-5.504zm-12.724 5.647a9.312 9.312 0 0 0 7.12.233 10.1 10.1 0 0 1-4.313-.744c-.932.23-1.87.398-2.807.51zm9.498-3.288c-.793.48-1.62.92-2.484 1.31l.585 1.35a9.455 9.455 0 0 0 1.9-2.663zm-5.654 2.496a9.47 9.47 0 0 0 3.185.413l-.585-1.348c-.86.365-1.726.677-2.6.935z" fill="#396"/>
    <path d="M15 1.043c-4.777 0-8.998 2.397-11.525 6.053L6.182 8.66A10.874 10.874 0 0 1 15 4.153c3.626 0 6.84 1.777 8.818 4.505l2.707-1.564C23.998 3.44 19.777 1.044 15 1.044z" fill="#900"/>
    <path d="M2.002 9.84A13.927 13.927 0 0 0 1 15.043c0 7.202 5.448 13.14 12.444 13.914V25.82C8.17 25.062 4.11 20.524 4.11 15.042c0-1.272.22-2.493.622-3.628L2.002 9.84zm25.996 0l-2.73 1.575a10.86 10.86 0 0 1 .62 3.628c0 5.482-4.058 10.02-9.332 10.776v3.135C23.552 28.183 29 22.245 29 15.043c0-1.84-.356-3.595-1.002-5.203z" fill="#069"/>
</svg>
