<?xml version="1.0" encoding="UTF-8" standalone="no"?>
<svg xmlns="http://www.w3.org/2000/svg" viewBox="0 0 30 30" width="30" height="30">
    <rect width="100%" height="100%" rx="15%" fill="#ffffff" fill-opacity=".8" />
    <g fill-rule="evenodd">
        <path d="M8.095 24.35c4.44 4.122 9.37 4.122 13.81 0C29.638 17.17 19.143 2.56 15 2.56c-4.143 0-14.638 14.61-6.905 21.79z" fill="#fff" stroke="#069" stroke-width="2.655"/>
        <path d="M19.143 18.02A4.147 4.147 0 0 1 15 22.16a4.147 4.147 0 0 1-4.143-4.143c0-2.29 1.872-4.144 4.154-4.144a4.137 4.137 0 0 1 4.135 4.143z" fill="#900"/>
        <path d="M16.1 5.867c-.83-.8-1.382-.8-2.21 0-5.344 5.165-6.353 10.77-5.8 11.324h1.38c1.105-6.35 9.943-6.35 11.048 0h1.38c.553-.55-.275-6.35-5.8-11.32z" fill="#396" stroke="#396" stroke-width=".063" stroke-linejoin="round" stroke-miterlimit="1"/>
        <path d="M21.602 18.572h-1.105c-1.38 6.352-9.666 6.352-11.047 0H8.345c-.08 0-.242.193-.223.288 1.564 7.89 12.164 7.853 13.756-.012.022-.107-.184-.276-.276-.276z" fill="#396" stroke="#396" stroke-width=".007"/>
    </g>
</svg>
