<svg viewBox="0 0 947 947" width="947" height="947" xmlns="http://www.w3.org/2000/svg">
<rect width="100%" height="100%" rx="15%" fill="#ffffff" fill-opacity=".8"/>
<path d="m810.38006,473.59306c0,-185.93546 -150.9446,-336.88007 -336.88007,-336.88007s-336.88007,150.9446 -336.88007,336.88007c0,185.93546 150.9446,336.88007 336.88007,336.88007s336.88007,-150.9446 336.88007,-336.88007" fill="#000080"/>
<path d="m711.73562,334.00187c0,-54.44056 -44.20388,-98.64444 -98.64444,-98.64444s-98.64444,44.20388 -98.64444,98.64444c0,54.44056 44.20388,98.64444 98.64444,98.64444s98.64444,-44.20388 98.64444,-98.64444" fill="#FFFFFF" fill-opacity=".8"/>
<path d="m909.0245,136.61993c0,-54.44056 -44.20388,-98.64444 -98.64444,-98.64444s-98.64444,44.20388 -98.64444,98.64444c0,54.44056 44.20388,98.64444 98.64444,98.64444s98.64444,-44.11082 98.64444,-98.64444" fill="#000080"/>
<path d="m273.04705,617.0928l109.16031,0l0,24.84723l-137.35773,0l0,-221.01938l28.19742,0l0,196.17215z" fill="#FFFFFF" fill-opacity=".8"/>
<path d="m512.58553,641.94003l0,-22.14847c-14.88973,20.93868 -29.68639,29.12803 -53.04465,29.12803c-30.89618,0 -50.62507,-16.93706 -50.62507,-43.36633l0,-122.468l25.12641,0l0,112.5105c0,19.07746 12.74933,31.26843 32.7574,31.26843c26.3362,0 43.36633,-21.21786 43.36633,-53.69608l0,-90.08285l25.12641,0l0,158.85477l-22.70683,0z" fill="#FFFFFF" fill-opacity=".8"/>
<path d="m720.01803,646.22082c-8.18935,2.1404 -12.0979,2.69876 -17.30931,2.69876c-16.3787,0 -24.28887,-7.25874 -26.05702,-23.35826c-17.86767,16.3787 -33.96719,23.35826 -53.97526,23.35826c-32.10597,0 -52.11404,-18.14685 -52.11404,-46.9957c0,-20.6595 9.39914,-34.8978 27.91824,-42.43572c9.67832,-3.90855 15.16891,-5.11834 50.90425,-9.67832c20.00807,-2.41958 26.3362,-6.97956 26.3362,-17.58849l0,-6.70038c0,-15.16891 -12.74933,-23.63744 -35.45616,-23.63744c-23.63744,0 -35.17698,8.74771 -37.31738,28.19742l-25.49866,0c0.65143,-15.72727 3.62937,-24.84723 10.88811,-33.03658c10.60893,-11.81872 29.68639,-18.5191 52.76547,-18.5191c39.08553,0 59.74503,15.16891 59.74503,43.36633l0,93.43303c0,7.91017 4.83916,12.47015 13.67994,12.47015c1.48897,0 2.69876,0 5.49059,-0.65143l0,19.07746zm-44.29694,-82.8241c-8.46853,3.90855 -13.95912,5.11834 -40.66757,8.74771c-26.98763,3.90855 -38.24799,12.47015 -38.24799,29.12803c0,16.09952 11.53954,25.49866 31.26843,25.49866c14.88973,0 27.26681,-4.83916 37.59656,-14.2383c7.53792,-6.97956 10.05057,-12.0979 10.05057,-20.6595l0,-28.4766z" fill="#FFFFFF" fill-opacity=".8"/>
<path d="m861.65656,275.74581c31.17537,61.234 47.461,128.98226 47.461,197.75418c0,240.46909 -195.14848,435.61756 -435.61756,435.61756s-435.61756,-195.14848 -435.61756,-435.61756c0,-240.46909 195.14848,-435.61756 435.61756,-435.61756c77.33352,0 153.17806,20.56643 219.80959,59.46585" fill="none" stroke="#808080" stroke-dasharray="40.8475" stroke-miterlimit="10" stroke-width="10.8612"/>
</svg>
