<?xml version="1.0" encoding="utf-8"?>
<!-- Generator: Adobe Illustrator 24.0.1, SVG Export Plug-In . SVG Version: 6.00 Build 0)  -->
<svg version="1.1" id="Layer_1" xmlns="http://www.w3.org/2000/svg" xmlns:xlink="http://www.w3.org/1999/xlink" x="0px" y="0px"
	 viewBox="0 0 772.4 772.5" style="enable-background:new 0 0 772.4 772.5;" xml:space="preserve">
<style type="text/css">
	.st0{fill:#006699;}
</style>
<path class="st0" d="M0.8,378.7c16.4-0.4,29.7-4.9,40-13.2c10.3-8.4,17.2-19.9,20.5-34.6c3.4-14.6,5.2-39.7,5.4-75.2
	s0.9-58.8,1.9-70.1c1.9-17.8,5.4-32.2,10.7-43c5.2-10.8,11.6-19.5,19.3-26c7.6-6.5,17.4-11.4,29.3-14.8c8-2.1,21.2-3.2,39.5-3.2
	h17.8v50h-9.9c-22.1,0-36.8,4-43.9,12c-7.3,8-10.8,25.7-10.8,53.4c0,55.7-1.2,90.8-3.5,105.5c-3.8,22.8-10.4,40.2-19.6,52.6
	s-23.7,23.3-43.5,32.8c23.3,9.8,40.3,24.7,50.8,44.7s15.8,52.9,15.8,98.6c0,41.4,0.4,66.1,1.3,74c1.7,14.4,6,24.5,12.9,30.2
	s20.4,8.6,40.6,8.6h9.9v50h-17.8c-20.8,0-35.9-1.7-45.2-5.1c-13.6-4.9-24.9-12.8-33.8-23.7c-8.9-10.9-14.7-24.8-17.4-41.5
	c-2.7-16.7-4.1-44.3-4.3-82.5c-0.2-38.2-2-64.7-5.4-79.3c-3.4-14.6-10.2-26.2-20.5-34.7c-10.4-8.7-23.7-13.2-40.1-13.6
	C0.8,430.6,0.8,378.7,0.8,378.7z"/>
<path class="st0" d="M162.2,378.7c16.4-0.4,29.7-4.9,40-13.2c10.3-8.4,17.2-19.9,20.5-34.6c3.4-14.6,5.2-39.7,5.4-75.2
	c0.2-35.5,0.9-58.8,1.9-70.1c1.9-17.8,5.4-32.2,10.7-43s11.6-19.5,19.3-26c7.6-6.5,17.4-11.4,29.3-14.8c8-2.1,21.2-3.2,39.5-3.2
	h17.8v50h-9.9c-22.1,0-36.8,4-43.9,12c-7.3,8-10.8,25.7-10.8,53.4c0,55.7-1.2,90.8-3.5,105.5c-3.8,22.8-10.4,40.2-19.6,52.6
	s-23.7,23.3-43.5,32.8c23.3,9.8,40.3,24.7,50.8,44.7c10.5,20,15.8,52.9,15.8,98.6c0,41.4,0.4,66.1,1.3,74c1.7,14.4,6,24.5,12.9,30.2
	c6.9,5.7,20.4,8.6,40.6,8.6h9.7v50h-17.8c-20.8,0-35.9-1.7-45.2-5.1c-13.6-4.9-24.9-12.8-33.8-23.7c-8.9-10.9-14.7-24.8-17.4-41.5
	c-2.7-16.7-4.1-44.3-4.3-82.5s-2-64.7-5.4-79.3c-3.4-14.6-10.2-26.2-20.5-34.7c-10.3-8.5-23.6-13-40-13.4L162.2,378.7L162.2,378.7z"
	/>
<path class="st0" d="M610.4,378.7v51.9c-16.4,0.4-29.7,4.9-40,13.4c-10.3,8.5-17.2,20-20.5,34.6c-3.4,14.6-5.2,39.6-5.4,75
	c-0.2,35.5-0.9,58.8-1.9,70.1c-1.9,18.1-5.4,32.4-10.7,43.1c-5.2,10.7-11.6,19.4-19.3,25.8c-7.6,6.5-17.4,11.4-29.3,14.8
	c-8,2.3-21.2,3.5-39.5,3.5h-17.8v-50h9.9c22.1,0,36.8-4,43.9-12c7.3-8,10.8-25.9,10.8-53.7c0-53.1,0.9-86.8,2.9-101
	c3.4-23.6,10.2-42.4,20.4-56.6c10.2-14.1,24.7-25.1,43.4-33c-24.4-11.7-41.6-27.1-51.6-46.3c-10-19.2-15-51.7-15-97.4
	c0-41.4-0.5-66.2-1.6-74.2c-1.5-14.2-5.7-24.1-12.6-29.8c-6.9-5.7-20.4-8.4-40.6-8.4h-9.9v-50h17.8c20.8,0,35.9,1.7,45.2,5.1
	c13.6,4.6,24.9,12.5,33.8,23.6c8.9,11,14.7,24.9,17.4,41.8c2.7,16.7,4.1,44.3,4.3,82.5c0.2,38.2,2,64.6,5.4,79.2
	s10.2,26.1,20.5,34.6C580.7,373.8,594,378.3,610.4,378.7z"/>
<path class="st0" d="M771.8,378.7v51.9c-16.4,0.4-29.7,4.9-40,13.4c-10.3,8.5-17.2,20-20.5,34.6c-3.4,14.6-5.2,39.6-5.4,75
	c-0.2,35.5-0.9,58.8-1.9,70.1c-1.9,18.1-5.4,32.4-10.7,43.1c-5.2,10.7-11.6,19.4-19.3,25.8c-7.6,6.5-17.4,11.4-29.3,14.8
	c-8,2.3-21.2,3.5-39.5,3.5h-17.8v-50h9.9c22.1,0,36.8-4,43.9-12c7.3-8,10.8-25.9,10.8-53.7c0-53.1,0.9-86.8,2.9-101
	c3.4-23.6,10.2-42.4,20.4-56.6c10.2-14.1,24.7-25.1,43.4-33c-24.4-11.7-41.6-27.1-51.6-46.3c-10-19.2-15-51.7-15-97.4
	c0-41.4-0.5-66.2-1.6-74.2c-1.5-14.2-5.7-24.1-12.6-29.8c-6.9-5.7-20.4-8.4-40.6-8.4h-9.9v-50h17.8c20.8,0,35.9,1.7,45.2,5.1
	c13.6,4.6,24.9,12.5,33.8,23.6c8.9,11,14.7,24.9,17.4,41.8c2.7,16.7,4.1,44.3,4.3,82.5c0.2,38.2,2,64.6,5.4,79.2
	c3.4,14.6,10.2,26.1,20.5,34.6C742.1,373.8,755.4,378.3,771.8,378.7z"/>
</svg>
