<?xml version="1.0" encoding="utf-8"?>
<!-- Generator: Adobe Illustrator 24.0.1, SVG Export Plug-In . SVG Version: 6.00 Build 0)  -->
<svg version="1.1" id="Layer_1" xmlns="http://www.w3.org/2000/svg" x="0px" y="0px"
     viewBox="0 0 772.4 772.5" style="enable-background:new 0 0 772.4 772.5;" xml:space="preserve">
<style type="text/css">
	.st0{fill:#006699;}
	.st1{fill:#FFFFFF;fill-opacity:0.8;}
	.st2{fill:#FFFFFF;}
</style>
    <path class="st0" d="M673.8,435.6c0-185.9-150.9-336.9-336.9-336.9S0,249.7,0,435.6s150.9,336.9,336.9,336.9
	S673.8,621.6,673.8,435.6"/>
    <path class="st1"
          d="M575.1,296c0-54.4-44.2-98.6-98.6-98.6s-98.6,44.2-98.6,98.6s44.2,98.6,98.6,98.6S575.1,350.5,575.1,296"/>
    <path class="st0"
          d="M772.4,98.6c0-54.4-44.2-98.6-98.6-98.6s-98.6,44.2-98.6,98.6s44.2,98.6,98.6,98.6S772.4,153.2,772.4,98.6"/>
    <path class="st2"
          d="M575.1,296c0-54.4-44.2-98.6-98.6-98.6s-98.6,44.2-98.6,98.6s44.2,98.6,98.6,98.6S575.1,350.6,575.1,296"/>
</svg>
