<svg width="64" height="64" xmlns="http://www.w3.org/2000/svg" viewBox="0 0 64 64">
<rect width="100%" height="100%" rx="15%" fill="#ffffff" fill-opacity=".8"/>
<path d="m0,30.2181c1.11819,-0.02903 2.02581,-0.32673 2.72287,-0.8931c0.71157,-0.58087 1.18354,-1.37231 1.41589,-2.37434c0.23234,-1.002 0.35578,-2.71558 0.37031,-5.14077c0.01452,-2.42514 0.05808,-4.02256 0.1307,-4.79224c0.13069,-1.21982 0.3703,-2.20005 0.71884,-2.9407c0.36304,-0.74059 0.80596,-1.32873 1.32876,-1.76442c0.52278,-0.45015 1.19079,-0.79141 2.00403,-1.0238c0.55182,-0.14519 1.45219,-0.2178 2.70108,-0.21783l1.21984,0l0,3.41992l-0.67527,0c-1.51029,0.00003 -2.51231,0.27595 -3.00604,0.82775c-0.49375,0.53734 -0.74063,1.74992 -0.74062,3.63775c-0.00001,3.80477 -0.07988,6.20815 -0.23961,7.21015c-0.2614,1.55387 -0.71158,2.75193 -1.35054,3.59419c-0.62445,0.84229 -1.61194,1.59017 -2.96247,2.24364c1.5974,0.66802 2.7519,1.69182 3.46349,3.07139c0.72609,1.36507 1.08914,3.60871 1.08915,6.73093c-0.00001,2.83178 0.02903,4.51632 0.08713,5.05364c0.11617,0.98749 0.40661,1.67728 0.87132,2.06938c0.47921,0.39209 1.40862,0.58813 2.78821,0.58814l0.67527,0l0,3.41992l-1.21984,0c-1.42317,-0.00001 -2.45422,-0.11618 -3.09318,-0.34852c-0.92941,-0.33401 -1.69908,-0.87859 -2.30899,-1.63372c-0.60993,-0.74063 -1.00928,-1.68455 -1.19806,-2.83178c-0.17427,-1.14724 -0.26866,-3.02783 -0.28318,-5.64178c-0.01453,-2.61395 -0.13797,-4.42193 -0.37031,-5.42395c-0.23236,-1.00201 -0.70432,-1.79345 -1.41589,-2.37434c-0.69706,-0.58087 -1.60468,-0.88583 -2.72287,-0.91488l0,-3.55061m14.89952,0c1.11819,-0.02903 2.02581,-0.32673 2.72287,-0.8931c0.71157,-0.58087 1.18354,-1.37231 1.41589,-2.37434c0.23235,-1.002 0.35578,-2.71558 0.37031,-5.14077c0.01452,-2.42514 0.05808,-4.02256 0.1307,-4.79224c0.13069,-1.21982 0.3703,-2.20005 0.71884,-2.9407c0.36304,-0.74059 0.80597,-1.32873 1.32876,-1.76442c0.52278,-0.45015 1.1908,-0.79141 2.00403,-1.0238c0.55183,-0.14519 1.45219,-0.2178 2.70108,-0.21783l1.21984,0l0,3.41992l-0.67527,0c-1.5103,0.00003 -2.51231,0.27595 -3.00605,0.82775c-0.49375,0.53734 -0.74063,1.74992 -0.74062,3.63775c-0.00001,3.80477 -0.07988,6.20815 -0.23961,7.21015c-0.2614,1.55387 -0.71158,2.75193 -1.35054,3.59419c-0.62445,0.84229 -1.61194,1.59017 -2.96248,2.24364c1.59741,0.66802 2.7519,1.69182 3.46349,3.07139c0.72609,1.36507 1.08914,3.60871 1.08915,6.73093c-0.00001,2.83178 0.02903,4.51632 0.08713,5.05364c0.11617,0.98749 0.4066,1.67728 0.87132,2.06938c0.47922,0.39209 1.40862,0.58813 2.78822,0.58814l0.67527,0l0,3.41992l-1.21984,0c-1.42316,-0.00001 -2.45422,-0.11618 -3.09318,-0.34852c-0.92941,-0.33401 -1.69908,-0.87859 -2.30899,-1.63372c-0.60993,-0.74063 -1.00928,-1.68455 -1.19806,-2.83178c-0.17427,-1.14724 -0.26866,-3.02783 -0.28318,-5.64178c-0.01453,-2.61395 -0.13796,-4.42193 -0.37031,-5.42395c-0.23236,-1.00201 -0.70432,-1.79345 -1.41589,-2.37434c-0.69705,-0.58087 -1.60468,-0.88583 -2.72287,-0.91488l0,-3.55061m27.29402,0l0,3.55061c-1.1182,0.02906 -2.03309,0.33401 -2.74465,0.91488c-0.69706,0.58089 -1.16177,1.37233 -1.39411,2.37434c-0.23236,0.9875 -0.3558,2.69382 -0.37031,5.11899c-0.01453,2.42516 -0.0581,4.02258 -0.1307,4.79224c-0.13071,1.23436 -0.37758,2.2146 -0.74062,2.9407c-0.34854,0.74061 -0.7842,1.32875 -1.30698,1.76442c-0.5228,0.45017 -1.19081,0.79143 -2.00403,1.0238c-0.55184,0.15974 -1.4522,0.2396 -2.70108,0.23961l-1.21984,0l0,-3.41992l0.67527,0c1.51028,-0.00001 2.51229,-0.27592 3.00604,-0.82775c0.49374,-0.53732 0.74061,-1.75716 0.74062,-3.65953c0,-3.63049 0.06534,-5.93221 0.19605,-6.90519c0.23234,-1.61193 0.69705,-2.89712 1.3941,-3.85558c0.69705,-0.97296 1.68454,-1.7281 2.96248,-2.26542c-1.67003,-0.7987 -2.84631,-1.85154 -3.52883,-3.15853c-0.68254,-1.32148 -1.0238,-3.54334 -1.0238,-6.66558c0,-2.83176 -0.03631,-4.52356 -0.10892,-5.07542c-0.10166,-0.97294 -0.3921,-1.64821 -0.87132,-2.02581c-0.46471,-0.39206 -1.38685,-0.58811 -2.76643,-0.58814l-0.67527,0l0,-3.41992l1.21984,0c1.42315,0.00003 2.45421,0.11621 3.09318,0.34853c0.9294,0.31951 1.69906,0.85683 2.30899,1.61193c0.60991,0.75517 1.002,1.70636 1.17627,2.85356c0.18878,1.14726 0.29043,3.02785 0.30496,5.64178c0.01451,2.61397 0.13795,4.42196 0.37031,5.42395c0.23234,0.98751 0.69705,1.77169 1.39411,2.35256c0.71156,0.58089 1.62645,0.88585 2.74465,0.91488m14.89952,0l0,3.55061c-1.1182,0.02906 -2.03308,0.33401 -2.74465,0.91488c-0.69706,0.58089 -1.16177,1.37233 -1.3941,2.37434c-0.23236,0.9875 -0.3558,2.69382 -0.37031,5.11899c-0.01453,2.42516 -0.0581,4.02258 -0.1307,4.79224c-0.13071,1.23436 -0.37758,2.2146 -0.74062,2.9407c-0.34853,0.74061 -0.78419,1.32875 -1.30698,1.76442c-0.5228,0.45017 -1.1908,0.79143 -2.00403,1.0238c-0.55184,0.15974 -1.4522,0.2396 -2.70108,0.23961l-1.21985,0l0,-3.41992l0.67527,0c1.51028,-0.00001 2.51229,-0.27592 3.00604,-0.82775c0.49374,-0.53732 0.74061,-1.75716 0.74062,-3.65953c-0.00001,-3.63049 0.06534,-5.93221 0.19604,-6.90519c0.23235,-1.61193 0.69705,-2.89712 1.39411,-3.85558c0.69705,-0.97296 1.68454,-1.7281 2.96248,-2.26542c-1.67003,-0.7987 -2.84631,-1.85154 -3.52884,-3.15853c-0.68254,-1.32148 -1.0238,-3.54334 -1.0238,-6.66558c-0.00001,-2.83176 -0.03631,-4.52356 -0.10892,-5.07542c-0.10166,-0.97294 -0.3921,-1.64821 -0.87132,-2.02581c-0.4647,-0.39206 -1.38685,-0.58811 -2.76643,-0.58814l-0.67527,0l0,-3.41992l1.21985,0c1.42315,0.00003 2.4542,0.11621 3.09318,0.34853c0.9294,0.31951 1.69906,0.85683 2.30899,1.61193c0.60991,0.75517 1.00201,1.70636 1.17628,2.85356c0.18878,1.14726 0.29043,3.02785 0.30496,5.64178c0.01451,2.61397 0.13795,4.42196 0.37031,5.42395c0.23234,0.98751 0.69704,1.77169 1.3941,2.35256c0.71157,0.58089 1.62645,0.88585 2.74465,0.91488" fill="#069" transform="translate(3.45347 0) scale(0.999273 1.00073)"/>
</svg>
